<svg width="48" height="96" viewBox="0 0 24 48" fill="none" xmlns="http://www.w3.org/2000/svg">
<path d="M20.3124 11.4857L11.9998 5.07798L3.68727 11.4857C3.25823 11.8162 2.6482 11.7656 2.27995 11.3687C1.86244 10.919 1.91904 10.2087 2.40223 9.83066L11.2871 2.87966L11.9998 2.21722L12.7129 2.87966L21.5978 9.83066C22.081 10.2087 22.1376 10.919 21.72 11.3687C21.3514 11.7656 20.7414 11.8162 20.3124 11.4857Z" fill="#B02721"/>
<path d="M20.3124 11.4857L11.9998 5.07798L3.68727 11.4857C3.25823 11.8162 2.6482 11.7656 2.27995 11.3687C1.86244 10.919 1.91904 10.2087 2.40223 9.83066L11.2871 2.87966L11.9998 2.21722L12.7129 2.87966L21.5978 9.83066C22.081 10.2087 22.1376 10.919 21.72 11.3687C21.3514 11.7656 20.7414 11.8162 20.3124 11.4857Z" fill="black"/>
<path d="M12.0004 5.07803L3.9646 11.2723V11.3013V21.7828H20.0363V11.3013V11.2723L12.0004 5.07803Z" fill="#B3B3B3"/>
<path d="M17.2407 13.747H13.0481V21.6082H17.2407V13.747Z" fill="white"/>
<path d="M10.9519 13.747H6.75928V17.2409H10.9519V13.747Z" fill="#7A7B7B"/>
<path d="M20.3124 35.4857L11.9998 29.078L3.68727 35.4857C3.25823 35.8162 2.6482 35.7656 2.27995 35.3687C1.86244 34.919 1.91904 34.2087 2.40223 33.8307L11.2871 26.8797L11.9998 26.2172L12.7129 26.8797L21.5978 33.8307C22.081 34.2087 22.1376 34.919 21.72 35.3687C21.3514 35.7656 20.7414 35.8162 20.3124 35.4857Z" fill="#B02721"/>
<path d="M20.3124 35.4857L11.9998 29.078L3.68727 35.4857C3.25823 35.8162 2.6482 35.7656 2.27995 35.3687C1.86244 34.919 1.91904 34.2087 2.40223 33.8307L11.2871 26.8797L11.9998 26.2172L12.7129 26.8797L21.5978 33.8307C22.081 34.2087 22.1376 34.919 21.72 35.3687C21.3514 35.7656 20.7414 35.8162 20.3124 35.4857Z" fill="url(#paint0_linear_113_4565)"/>
<path opacity="0.3" d="M12.0004 29.078L3.9646 35.2723V35.3013V45.7828H20.0363V35.3013V35.2723L12.0004 29.078Z" fill="url(#paint1_linear_113_4565)"/>
<path d="M17.2407 37.747H13.0481V45.6082H17.2407V37.747Z" fill="white"/>
<path d="M10.9519 37.747H6.75928V41.2409H10.9519V37.747Z" fill="url(#paint2_linear_113_4565)"/>
<defs>
<linearGradient id="paint0_linear_113_4565" x1="2" y1="30.9604" x2="21.4314" y2="34.2843" gradientUnits="userSpaceOnUse">
<stop stop-color="#FE9B25"/>
<stop offset="0.994792" stop-color="#FF5922"/>
</linearGradient>
<linearGradient id="paint1_linear_113_4565" x1="3.9646" y1="37.4304" x2="19.9389" y2="38.6774" gradientUnits="userSpaceOnUse">
<stop stop-color="#FE9B25"/>
<stop offset="0.994792" stop-color="#FF5922"/>
</linearGradient>
<linearGradient id="paint2_linear_113_4565" x1="6.75928" y1="39.494" x2="10.9125" y2="39.8983" gradientUnits="userSpaceOnUse">
<stop stop-color="#FE9B25"/>
<stop offset="0.994792" stop-color="#FF5922"/>
</linearGradient>
</defs>
</svg>
