<svg width="48" height="96" viewBox="0 0 24 48" fill="none" xmlns="http://www.w3.org/2000/svg">
<path d="M18.8225 10.7969C19.7843 10.1404 20.466 9.18045 20.7894 8.10518C20.8886 8.24105 20.9827 8.3821 21.0713 8.52857C21.6755 9.52677 22 10.7316 22 12.1687C22 14.3746 21.1671 15.9178 20.3194 16.9067C19.899 17.3973 19.4777 17.7488 19.1579 17.9798C19.1021 18.02 19.0493 18.0567 19 18.09V19.9187C19 20.8852 18.2165 21.6687 17.25 21.6687H16C15.1716 21.6687 14.5 20.9971 14.5 20.1687H12.5C12.5 20.9971 11.8284 21.6687 11 21.6687H9.75C8.7835 21.6687 8 20.8852 8 19.9187V19.236C7.86194 19.1895 7.7053 19.1317 7.53573 19.0608C6.93965 18.8113 6.15955 18.3889 5.46967 17.699C4.68564 16.915 4.16052 16.0969 3.8651 15.568C3.77791 15.4119 3.64768 15.3286 3.53621 15.31C2.64973 15.1623 2 14.3953 2 13.4966V11.7437C2 10.901 2.60926 10.1818 3.44051 10.0432C3.52742 10.0287 3.6555 9.94244 3.71651 9.75974C3.90886 9.18348 4.28209 8.32594 4.96967 7.63836C5.53209 7.07595 6.15488 6.6628 6.6279 6.39251C6.76427 6.31458 6.88983 6.2476 7 6.19152V3.33985C7 2.40195 8.13062 2.01697 8.73986 2.62363C9.07031 2.95268 9.55006 3.39152 10.0811 3.75799C10.6111 4.12376 11.1177 4.36479 11.5352 4.41793C11.0507 5.38038 10.8779 6.49435 11.0853 7.59285C11.2662 8.55049 11.999 9.15557 12.6874 9.44065L16.3831 10.971C17.0715 11.2561 18.0175 11.3463 18.8225 10.7969ZM8 10.6686C8.55228 10.6686 9 10.2209 9 9.66864C9 9.11639 8.55228 8.66867 8 8.66867C7.44772 8.66867 7 9.11639 7 9.66864C7 10.2209 7.44772 10.6686 8 10.6686Z" fill="#AEAFB0"/>
<path d="M18.2589 9.97101C19.2111 9.32107 19.82 8.2986 19.9667 7.19006C19.9667 7.19004 19.9667 7.19007 19.9667 7.19006C20.0559 6.51631 19.9743 5.81072 19.6955 5.1377C18.8499 3.09679 16.51 2.12778 14.469 2.97336C12.6887 3.71098 11.724 5.5858 12.068 7.40727C12.0927 7.5376 12.137 7.65942 12.1973 7.77203C12.2472 7.86527 12.308 7.95219 12.3777 8.03237C12.5605 8.24265 12.804 8.40661 13.0701 8.5168L16.7658 10.0472C17.2559 10.2502 17.8207 10.27 18.2589 9.97101Z" fill="black"/>
<path opacity="0.3" d="M18.8225 34.7969C19.7843 34.1404 20.466 33.1804 20.7894 32.1052C20.8886 32.241 20.9827 32.3821 21.0713 32.5286C21.6755 33.5268 22 34.7316 22 36.1687C22 38.3746 21.1671 39.9178 20.3194 40.9067C19.899 41.3973 19.4777 41.7488 19.1579 41.9798C19.1021 42.02 19.0493 42.0567 19 42.09V43.9187C19 44.8852 18.2165 45.6687 17.25 45.6687H16C15.1716 45.6687 14.5 44.9971 14.5 44.1687H12.5C12.5 44.9971 11.8284 45.6687 11 45.6687H9.75C8.7835 45.6687 8 44.8852 8 43.9187V43.236C7.86194 43.1895 7.7053 43.1317 7.53573 43.0608C6.93965 42.8113 6.15955 42.3889 5.46967 41.699C4.68564 40.915 4.16052 40.0969 3.8651 39.568C3.77791 39.4119 3.64768 39.3286 3.53621 39.31C2.64973 39.1623 2 38.3953 2 37.4966V35.7437C2 34.901 2.60926 34.1818 3.44051 34.0432C3.52742 34.0287 3.6555 33.9424 3.71651 33.7597C3.90886 33.1835 4.28209 32.3259 4.96967 31.6384C5.53209 31.0759 6.15488 30.6628 6.6279 30.3925C6.76427 30.3146 6.88983 30.2476 7 30.1915V27.3398C7 26.4019 8.13062 26.017 8.73986 26.6236C9.07031 26.9527 9.55006 27.3915 10.0811 27.758C10.6111 28.1238 11.1177 28.3648 11.5352 28.4179C11.0507 29.3804 10.8779 30.4943 11.0853 31.5928C11.2662 32.5505 11.999 33.1556 12.6874 33.4406L16.3831 34.971C17.0715 35.2561 18.0175 35.3463 18.8225 34.7969ZM8 34.6686C8.55228 34.6686 9 34.2209 9 33.6686C9 33.1164 8.55228 32.6687 8 32.6687C7.44772 32.6687 7 33.1164 7 33.6686C7 34.2209 7.44772 34.6686 8 34.6686Z" fill="url(#paint0_linear_113_4563)"/>
<path d="M18.2589 33.971C19.2111 33.3211 19.82 32.2986 19.9667 31.1901C19.9667 31.19 19.9667 31.1901 19.9667 31.1901C20.0559 30.5163 19.9743 29.8107 19.6955 29.1377C18.8499 27.0968 16.51 26.1278 14.469 26.9734C12.6887 27.711 11.724 29.5858 12.068 31.4073C12.0927 31.5376 12.137 31.6594 12.1973 31.772C12.2472 31.8653 12.308 31.9522 12.3777 32.0324C12.5605 32.2426 12.804 32.4066 13.0701 32.5168L16.7658 34.0472C17.2559 34.2502 17.8207 34.27 18.2589 33.971Z" fill="url(#paint1_linear_113_4563)"/>
<defs>
<linearGradient id="paint0_linear_113_4563" x1="2" y1="36" x2="21.8601" y2="37.6666" gradientUnits="userSpaceOnUse">
<stop stop-color="#FE9B25"/>
<stop offset="0.994792" stop-color="#FF5922"/>
</linearGradient>
<linearGradient id="paint1_linear_113_4563" x1="11.999" y1="30.4328" x2="19.9421" y2="31.1177" gradientUnits="userSpaceOnUse">
<stop stop-color="#FE9B25"/>
<stop offset="0.994792" stop-color="#FF5922"/>
</linearGradient>
</defs>
</svg>
