<svg width="48" height="96" viewBox="0 0 24 48" fill="none" xmlns="http://www.w3.org/2000/svg">
<path d="M16.1678 7.27145V6.61215C16.1678 4.31456 14.2978 2.44452 12.0002 2.44452C9.70257 2.44452 7.83253 4.31456 7.83253 6.61215V7.27145H4.80371V19.3708C4.80371 20.8212 5.98247 22 7.43295 22H16.5674C18.0178 22 19.1966 20.8212 19.1966 19.3708V7.27145H16.1678ZM8.85946 10.3402C8.37197 10.3402 7.97638 9.94465 7.97638 9.45716C7.97638 8.96967 8.37197 8.57409 8.85946 8.57409C9.34694 8.57409 9.74253 8.96967 9.74253 9.45716C9.74253 9.94865 9.34694 10.3402 8.85946 10.3402ZM14.2458 7.27145H9.75452V6.61215C9.75452 5.37345 10.7615 4.3665 12.0002 4.3665C13.2389 4.3665 14.2458 5.37345 14.2458 6.61215V7.27145ZM15.1409 10.3402C14.6534 10.3402 14.2578 9.94465 14.2578 9.45716C14.2578 8.96967 14.6534 8.57409 15.1409 8.57409C15.6284 8.57409 16.0239 8.96967 16.0239 9.45716C16.0199 9.94865 15.6284 10.3402 15.1409 10.3402Z" fill="#B3B3B3"/>
<mask id="mask0_113_4566" style="mask-type:alpha" maskUnits="userSpaceOnUse" x="6" y="2" width="12" height="6">
<path d="M17.6238 7.50429L6.61523 7.50429L9.36738 2H15.658L17.6238 7.50429Z" fill="#C4C4C4"/>
</mask>
<g mask="url(#mask0_113_4566)">
<path d="M16.1678 7.27145V6.61215C16.1678 4.31456 14.2978 2.44452 12.0002 2.44452C9.70257 2.44452 7.83253 4.31456 7.83253 6.61215V7.27145H4.80371V19.3708C4.80371 20.8212 5.98247 22 7.43295 22H16.5674C18.0178 22 19.1966 20.8212 19.1966 19.3708V7.27145H16.1678ZM8.85946 10.3402C8.37197 10.3402 7.97638 9.94465 7.97638 9.45716C7.97638 8.96967 8.37197 8.57409 8.85946 8.57409C9.34694 8.57409 9.74253 8.96967 9.74253 9.45716C9.74253 9.94865 9.34694 10.3402 8.85946 10.3402ZM14.2458 7.27145H9.75452V6.61215C9.75452 5.37345 10.7615 4.3665 12.0002 4.3665C13.2389 4.3665 14.2458 5.37345 14.2458 6.61215V7.27145ZM15.1409 10.3402C14.6534 10.3402 14.2578 9.94465 14.2578 9.45716C14.2578 8.96967 14.6534 8.57409 15.1409 8.57409C15.6284 8.57409 16.0239 8.96967 16.0239 9.45716C16.0199 9.94865 15.6284 10.3402 15.1409 10.3402Z" fill="black"/>
</g>
<path opacity="0.3" d="M16.1678 31.2715V30.6121C16.1678 28.3146 14.2978 26.4445 12.0002 26.4445C9.70257 26.4445 7.83253 28.3146 7.83253 30.6121V31.2715H4.80371V43.3708C4.80371 44.8212 5.98247 46 7.43295 46H16.5674C18.0178 46 19.1966 44.8212 19.1966 43.3708V31.2715H16.1678ZM8.85946 34.3402C8.37197 34.3402 7.97638 33.9446 7.97638 33.4572C7.97638 32.9697 8.37197 32.5741 8.85946 32.5741C9.34694 32.5741 9.74253 32.9697 9.74253 33.4572C9.74253 33.9486 9.34694 34.3402 8.85946 34.3402ZM14.2458 31.2715H9.75452V30.6121C9.75452 29.3734 10.7615 28.3665 12.0002 28.3665C13.2389 28.3665 14.2458 29.3734 14.2458 30.6121V31.2715ZM15.1409 34.3402C14.6534 34.3402 14.2578 33.9446 14.2578 33.4572C14.2578 32.9697 14.6534 32.5741 15.1409 32.5741C15.6284 32.5741 16.0239 32.9697 16.0239 33.4572C16.0199 33.9486 15.6284 34.3402 15.1409 34.3402Z" fill="url(#paint0_linear_113_4566)"/>
<mask id="mask1_113_4566" style="mask-type:alpha" maskUnits="userSpaceOnUse" x="6" y="26" width="12" height="6">
<path d="M17.6238 31.5043L6.61523 31.5043L9.36738 26H15.658L17.6238 31.5043Z" fill="#C4C4C4"/>
</mask>
<g mask="url(#mask1_113_4566)">
<path d="M16.1678 31.2715V30.6121C16.1678 28.3146 14.2978 26.4445 12.0002 26.4445C9.70257 26.4445 7.83253 28.3146 7.83253 30.6121V31.2715H4.80371V43.3708C4.80371 44.8212 5.98247 46 7.43295 46H16.5674C18.0178 46 19.1966 44.8212 19.1966 43.3708V31.2715H16.1678ZM8.85946 34.3402C8.37197 34.3402 7.97638 33.9447 7.97638 33.4572C7.97638 32.9697 8.37197 32.5741 8.85946 32.5741C9.34694 32.5741 9.74253 32.9697 9.74253 33.4572C9.74253 33.9486 9.34694 34.3402 8.85946 34.3402ZM14.2458 31.2715H9.75452V30.6121C9.75452 29.3734 10.7615 28.3665 12.0002 28.3665C13.2389 28.3665 14.2458 29.3734 14.2458 30.6121V31.2715ZM15.1409 34.3402C14.6534 34.3402 14.2578 33.9447 14.2578 33.4572C14.2578 32.9697 14.6534 32.5741 15.1409 32.5741C15.6284 32.5741 16.0239 32.9697 16.0239 33.4572C16.0199 33.9486 15.6284 34.3402 15.1409 34.3402Z" fill="url(#paint1_linear_113_4566)"/>
</g>
<defs>
<linearGradient id="paint0_linear_113_4566" x1="4.80371" y1="36.2223" x2="19.1455" y2="37.0787" gradientUnits="userSpaceOnUse">
<stop stop-color="#FE9B25"/>
<stop offset="0.994792" stop-color="#FF5922"/>
</linearGradient>
<linearGradient id="paint1_linear_113_4566" x1="4.80371" y1="36.2223" x2="19.1455" y2="37.0787" gradientUnits="userSpaceOnUse">
<stop stop-color="#FE9B25"/>
<stop offset="0.994792" stop-color="#FF5922"/>
</linearGradient>
</defs>
</svg>
