<svg width="48" height="96" viewBox="0 0 24 48" fill="none" xmlns="http://www.w3.org/2000/svg">
<path opacity="0.3" d="M11.9999 16.1666C15.6818 16.1666 18.6666 13.1819 18.6666 9.49998C18.6666 5.81808 15.6818 2.83331 11.9999 2.83331C8.31802 2.83331 5.33325 5.81808 5.33325 9.49998C5.33325 13.1819 8.31802 16.1666 11.9999 16.1666Z" fill="black"/>
<path opacity="0.3" d="M14.1081 11.1667H9.88489L11.9799 16.5538L14.1081 11.1667ZM10.8067 18.1354L7.44849 9.5H16.5586L13.1454 18.1395L11.98 17.6791L10.8067 18.1354Z" fill="black"/>
<path opacity="0.3" fill-rule="evenodd" clip-rule="evenodd" d="M10.3333 20.3333H13.6666C13.6666 21.2538 12.9204 22 11.9999 22C11.0794 22 10.3333 21.2538 10.3333 20.3333Z" fill="black"/>
<path fill-rule="evenodd" clip-rule="evenodd" d="M9.50008 18.6666C9.03984 18.6666 8.66675 18.2936 8.66675 17.8333C8.66675 17.3731 9.03984 17 9.50008 17C9.03984 17 8.66675 16.6269 8.66675 16.1666C8.66675 15.7064 9.03984 15.3333 9.50008 15.3333H14.5001C14.9603 15.3333 15.3334 15.7064 15.3334 16.1666C15.3334 16.6269 14.9603 17 14.5001 17C14.9603 17 15.3334 17.3731 15.3334 17.8333C15.3334 18.2936 14.9603 18.6666 14.5001 18.6666C14.9603 18.6666 15.3334 19.0397 15.3334 19.5C15.3334 19.9602 14.9603 20.3333 14.5001 20.3333H9.50008C9.03984 20.3333 8.66675 19.9602 8.66675 19.5C8.66675 19.0397 9.03984 18.6666 9.50008 18.6666Z" fill="black"/>
<path opacity="0.3" d="M11.9999 40.1666C15.6818 40.1666 18.6666 37.1819 18.6666 33.5C18.6666 29.8181 15.6818 26.8333 11.9999 26.8333C8.31802 26.8333 5.33325 29.8181 5.33325 33.5C5.33325 37.1819 8.31802 40.1666 11.9999 40.1666Z" fill="url(#paint0_linear_113_4554)"/>
<path d="M14.1081 35.1667H9.88489L11.9799 40.5538L14.1081 35.1667ZM10.8067 42.1354L7.44849 33.5H16.5586L13.1454 42.1395L11.98 41.6791L10.8067 42.1354Z" fill="url(#paint1_linear_113_4554)"/>
<path opacity="0.3" fill-rule="evenodd" clip-rule="evenodd" d="M10.3333 44.3333H13.6666C13.6666 45.2538 12.9204 46 11.9999 46C11.0794 46 10.3333 45.2538 10.3333 44.3333Z" fill="url(#paint2_linear_113_4554)"/>
<path fill-rule="evenodd" clip-rule="evenodd" d="M9.50008 42.6666C9.03984 42.6666 8.66675 42.2936 8.66675 41.8333C8.66675 41.3731 9.03984 41 9.50008 41C9.03984 41 8.66675 40.6269 8.66675 40.1666C8.66675 39.7064 9.03984 39.3333 9.50008 39.3333H14.5001C14.9603 39.3333 15.3334 39.7064 15.3334 40.1666C15.3334 40.6269 14.9603 41 14.5001 41C14.9603 41 15.3334 41.3731 15.3334 41.8333C15.3334 42.2936 14.9603 42.6666 14.5001 42.6666C14.9603 42.6666 15.3334 43.0397 15.3334 43.5C15.3334 43.9602 14.9603 44.3333 14.5001 44.3333H9.50008C9.03984 44.3333 8.66675 43.9602 8.66675 43.5C8.66675 43.0397 9.03984 42.6666 9.50008 42.6666Z" fill="url(#paint3_linear_113_4554)"/>
<defs>
<linearGradient id="paint0_linear_113_4554" x1="5.33325" y1="33.5" x2="18.5794" y2="34.5747" gradientUnits="userSpaceOnUse">
<stop stop-color="#FE9B25"/>
<stop offset="0.994792" stop-color="#FF5922"/>
</linearGradient>
<linearGradient id="paint1_linear_113_4554" x1="7.44849" y1="37.8198" x2="16.4924" y2="38.5935" gradientUnits="userSpaceOnUse">
<stop stop-color="#FE9B25"/>
<stop offset="0.994792" stop-color="#FF5922"/>
</linearGradient>
<linearGradient id="paint2_linear_113_4554" x1="10.3333" y1="45.1666" x2="13.5811" y2="45.6937" gradientUnits="userSpaceOnUse">
<stop stop-color="#FE9B25"/>
<stop offset="0.994792" stop-color="#FF5922"/>
</linearGradient>
<linearGradient id="paint3_linear_113_4554" x1="8.66675" y1="41.8333" x2="15.2563" y2="42.5462" gradientUnits="userSpaceOnUse">
<stop stop-color="#FE9B25"/>
<stop offset="0.994792" stop-color="#FF5922"/>
</linearGradient>
</defs>
</svg>
