<svg width="48" height="96" viewBox="0 0 24 48" fill="none" xmlns="http://www.w3.org/2000/svg">
<path opacity="0.3" d="M20.9998 4H2.99976C2.44747 4 1.99976 4.44772 1.99976 5V8C1.99976 8.55228 2.44747 9 2.99976 9H20.9998C21.552 9 21.9998 8.55228 21.9998 8V5C21.9998 4.44772 21.552 4 20.9998 4Z" fill="black"/>
<path fill-rule="evenodd" clip-rule="evenodd" d="M4.99976 6.5H7.99976V20.5H6.99976C5.89519 20.5 4.99976 19.6046 4.99976 18.5V6.5ZM18.9998 6.5V18.5C18.9998 19.6046 18.1043 20.5 16.9998 20.5H10.9998V6.5H18.9998Z" fill="black"/>
<path opacity="0.3" d="M20.9998 28H2.99976C2.44747 28 1.99976 28.4477 1.99976 29V32C1.99976 32.5523 2.44747 33 2.99976 33H20.9998C21.552 33 21.9998 32.5523 21.9998 32V29C21.9998 28.4477 21.552 28 20.9998 28Z" fill="url(#paint0_linear_113_4560)"/>
<path fill-rule="evenodd" clip-rule="evenodd" d="M4.99976 30.5H7.99976V44.5H6.99976C5.89519 44.5 4.99976 43.6046 4.99976 42.5V30.5ZM18.9998 30.5V42.5C18.9998 43.6046 18.1043 44.5 16.9998 44.5H10.9998V30.5H18.9998Z" fill="url(#paint1_linear_113_4560)"/>
<defs>
<linearGradient id="paint0_linear_113_4560" x1="1.99976" y1="30.5" x2="20.0939" y2="36.3724" gradientUnits="userSpaceOnUse">
<stop stop-color="#FE9B25"/>
<stop offset="0.994792" stop-color="#FF5922"/>
</linearGradient>
<linearGradient id="paint1_linear_113_4560" x1="4.99976" y1="37.5" x2="18.9082" y2="38.6285" gradientUnits="userSpaceOnUse">
<stop stop-color="#FE9B25"/>
<stop offset="0.994792" stop-color="#FF5922"/>
</linearGradient>
</defs>
</svg>
