<svg width="48" height="96" viewBox="0 0 24 48" fill="none" xmlns="http://www.w3.org/2000/svg">
<g clip-path="url(#clip0_113_4567)">
<path d="M15.9041 4.15067C15.7989 3.42805 15.1688 2.88309 14.4386 2.88309H9.56168C8.83141 2.88309 8.20137 3.42805 8.09613 4.1507L7.83887 5.91723H9.06129L9.29313 4.325C9.31242 4.19258 9.42785 4.09274 9.56168 4.09274H14.4386C14.5724 4.09274 14.6879 4.19262 14.7071 4.325L14.9389 5.91719H16.1614L15.9041 4.15067Z" fill="black"/>
<path opacity="0.3" d="M19.83 14.7268H14.5934V15.4329C14.5934 15.6563 14.4702 15.8614 14.2732 15.9666L12.2846 17.027C12.1957 17.0745 12.0979 17.0982 12 17.0982C11.9022 17.0982 11.8043 17.0745 11.7154 17.027L9.72684 15.9666C9.52973 15.8614 9.40664 15.6563 9.40664 15.4329V14.7268H4.16996C3.34449 14.7268 2.58754 14.4289 2 13.9355V20.3746C2 20.7839 2.33301 21.117 2.74234 21.117H21.2577C21.667 21.117 22 20.7839 22 20.3746V13.9355C21.4124 14.4289 20.6555 14.7268 19.83 14.7268Z" fill="black"/>
<path opacity="0.3" d="M21.2577 7.12683H2.74234C2.33301 7.12683 2 7.45988 2 7.86918V11.3472C2 12.5437 2.97344 13.5171 4.16996 13.5171H9.40664V12.4577C9.40664 12.1236 9.67746 11.8528 10.0115 11.8528H13.9886C14.3226 11.8528 14.5934 12.1236 14.5934 12.4577V13.5171H19.83C21.0266 13.5171 22 12.5437 22 11.3472V7.86918C22 7.45988 21.667 7.12683 21.2577 7.12683Z" fill="black"/>
<path d="M10.6162 13.0625V15.07L11.9999 15.8079L13.3836 15.07V13.0625H10.6162Z" fill="black"/>
</g>
<g clip-path="url(#clip1_113_4567)">
<path d="M15.9041 28.1507C15.7989 27.428 15.1688 26.8831 14.4386 26.8831H9.56168C8.83141 26.8831 8.20137 27.428 8.09613 28.1507L7.83887 29.9172H9.06129L9.29313 28.325C9.31242 28.1926 9.42785 28.0927 9.56168 28.0927H14.4386C14.5724 28.0927 14.6879 28.1926 14.7071 28.325L14.9389 29.9172H16.1614L15.9041 28.1507Z" fill="url(#paint0_linear_113_4567)"/>
<path opacity="0.3" d="M19.83 38.7268H14.5934V39.4329C14.5934 39.6563 14.4702 39.8614 14.2732 39.9666L12.2846 41.027C12.1957 41.0745 12.0979 41.0982 12 41.0982C11.9022 41.0982 11.8043 41.0745 11.7154 41.027L9.72684 39.9666C9.52973 39.8614 9.40664 39.6563 9.40664 39.4329V38.7268H4.16996C3.34449 38.7268 2.58754 38.4289 2 37.9355V44.3746C2 44.7839 2.33301 45.117 2.74234 45.117H21.2577C21.667 45.117 22 44.7839 22 44.3746V37.9355C21.4124 38.4289 20.6555 38.7268 19.83 38.7268Z" fill="url(#paint1_linear_113_4567)"/>
<path opacity="0.3" d="M21.2577 31.1268H2.74234C2.33301 31.1268 2 31.4599 2 31.8692V35.3472C2 36.5437 2.97344 37.5171 4.16996 37.5171H9.40664V36.4577C9.40664 36.1236 9.67746 35.8528 10.0115 35.8528H13.9886C14.3226 35.8528 14.5934 36.1236 14.5934 36.4577V37.5171H19.83C21.0266 37.5171 22 36.5437 22 35.3472V31.8692C22 31.4599 21.667 31.1268 21.2577 31.1268Z" fill="url(#paint2_linear_113_4567)"/>
<path d="M10.6162 37.0625V39.07L11.9999 39.8079L13.3836 39.07V37.0625H10.6162Z" fill="url(#paint3_linear_113_4567)"/>
</g>
<defs>
<linearGradient id="paint0_linear_113_4567" x1="7.83887" y1="28.4002" x2="15.7686" y2="30.165" gradientUnits="userSpaceOnUse">
<stop stop-color="#FE9B25"/>
<stop offset="0.994792" stop-color="#FF5922"/>
</linearGradient>
<linearGradient id="paint1_linear_113_4567" x1="2" y1="41.5262" x2="21.0284" y2="45.826" gradientUnits="userSpaceOnUse">
<stop stop-color="#FE9B25"/>
<stop offset="0.994792" stop-color="#FF5922"/>
</linearGradient>
<linearGradient id="paint2_linear_113_4567" x1="2" y1="34.322" x2="20.7884" y2="39.0931" gradientUnits="userSpaceOnUse">
<stop stop-color="#FE9B25"/>
<stop offset="0.994792" stop-color="#FF5922"/>
</linearGradient>
<linearGradient id="paint3_linear_113_4567" x1="10.6162" y1="38.4352" x2="13.3652" y2="38.6601" gradientUnits="userSpaceOnUse">
<stop stop-color="#FE9B25"/>
<stop offset="0.994792" stop-color="#FF5922"/>
</linearGradient>
<clipPath id="clip0_113_4567">
<rect width="20" height="20" fill="white" transform="translate(2 2)"/>
</clipPath>
<clipPath id="clip1_113_4567">
<rect width="20" height="20" fill="white" transform="translate(2 26)"/>
</clipPath>
</defs>
</svg>
