<svg width="48" height="96" viewBox="0 0 24 48" fill="none" xmlns="http://www.w3.org/2000/svg">
<path d="M23.3647 8.39364C22.733 8.06293 21.0094 8.61959 20.5604 8.90848C20.4134 8.64692 20.2466 8.36044 20.0658 8.06712C19.1411 6.5674 18.357 5.69831 17.6684 5.41031C17.6408 5.39873 17.6122 5.38948 17.5831 5.38258C17.524 5.36864 16.093 5.04153 12.3557 5.04153C8.61828 5.04153 7.18726 5.36869 7.12816 5.38258C7.09896 5.38948 7.07044 5.39873 7.04281 5.41031C6.35432 5.69836 5.57013 6.5674 4.64549 8.06712C4.46465 8.36044 4.2978 8.64692 4.15084 8.90848C3.70184 8.61959 1.97824 8.06293 1.34658 8.39364C0.694773 8.73488 0.955938 9.80894 1.34658 10.1002C1.59046 10.2821 2.2596 10.3374 2.96425 10.2906C2.80483 10.5029 2.67919 10.7419 2.59414 10.9992C3.70539 11.2076 6.31758 11.1985 5.92719 12.0455C5.356 13.2843 3.59793 13.1128 2.51421 12.562L2.71657 16.0549C2.71657 16.8712 3.37828 17.5328 4.19452 17.5328H5.08331C5.89956 17.5328 6.56121 16.8712 6.56121 16.0549L6.53221 15.7418H18.1791L18.1501 16.0549C18.1501 16.8712 18.8117 17.5328 19.628 17.5328H20.5168C21.333 17.5328 21.9947 16.8712 21.9947 16.0549L22.197 12.562C21.1134 13.1128 19.3553 13.2844 18.7841 12.0455C18.3937 11.1985 21.0059 11.2076 22.1172 10.9992C22.0321 10.7418 21.9065 10.5029 21.7471 10.2906C22.4517 10.3375 23.1208 10.2821 23.3647 10.1002C23.7553 9.80894 24.0165 8.73488 23.3647 8.39364ZM15.1995 14.1003H9.51165L8.92066 11.9454H15.7904L15.1995 14.1003ZM5.17871 9.29917C5.88621 8.06136 6.79032 6.73948 7.42213 6.43483C7.68704 6.38277 9.13233 6.1319 12.3556 6.1319C15.5826 6.1319 17.0275 6.38336 17.2889 6.43478C17.92 6.73898 18.8243 8.06106 19.5322 9.29917H5.17871Z" fill="#AEAFB0"/>
<mask id="mask0_113_4564" style="mask-type:alpha" maskUnits="userSpaceOnUse" x="0" y="4" width="24" height="16">
<path d="M4.27723 8.43565L2.13861 11.2871V11.7624L0 15.0891L1.90099 19.1287L7.36634 19.3663H20.4356L24 13.1881L20.4356 8.43565L18.297 4.63367L5.94059 5.10891L4.27723 8.43565Z" fill="#404040"/>
</mask>
<g mask="url(#mask0_113_4564)">
<path d="M23.3659 8.39364C22.7342 8.06293 21.0106 8.61959 20.5616 8.90848C20.4146 8.64692 20.2478 8.36044 20.067 8.06712C19.1423 6.5674 18.3582 5.69831 17.6697 5.41031C17.642 5.39873 17.6135 5.38948 17.5843 5.38258C17.5253 5.36864 16.0942 5.04153 12.3569 5.04153C8.6195 5.04153 7.18848 5.36869 7.12938 5.38258C7.10018 5.38948 7.07166 5.39873 7.04403 5.41031C6.35554 5.69836 5.57135 6.5674 4.64671 8.06712C4.46587 8.36044 4.29902 8.64692 4.15206 8.90848C3.70306 8.61959 1.97946 8.06293 1.3478 8.39364C0.695994 8.73488 0.957159 9.80894 1.3478 10.1002C1.59168 10.2821 2.26082 10.3374 2.96547 10.2906C2.80605 10.5029 2.68042 10.7419 2.59536 10.9992C3.70661 11.2076 6.3188 11.1985 5.92841 12.0455C5.35722 13.2843 3.59915 13.1128 2.51543 12.562L2.71779 16.0549C2.71779 16.8712 3.3795 17.5328 4.19574 17.5328H5.08453C5.90078 17.5328 6.56243 16.8712 6.56243 16.0549L6.53343 15.7418H18.1803L18.1513 16.0549C18.1513 16.8712 18.813 17.5328 19.6292 17.5328H20.518C21.3342 17.5328 21.9959 16.8712 21.9959 16.0549L22.1983 12.562C21.1146 13.1128 19.3565 13.2844 18.7853 12.0455C18.3949 11.1985 21.0071 11.2076 22.1184 10.9992C22.0333 10.7418 21.9077 10.5029 21.7483 10.2906C22.4529 10.3375 23.1221 10.2821 23.3659 10.1002C23.7565 9.80894 24.0177 8.73488 23.3659 8.39364ZM15.2007 14.1003H9.51287L8.92188 11.9454H15.7917L15.2007 14.1003ZM5.17993 9.29917C5.88743 8.06136 6.79154 6.73948 7.42335 6.43483C7.68826 6.38277 9.13355 6.1319 12.3568 6.1319C15.5838 6.1319 17.0287 6.38336 17.2901 6.43478C17.9212 6.73898 18.8255 8.06106 19.5334 9.29917H5.17993Z" fill="black"/>
<path d="M9.2858 14.7966L7.96973 11.2871H16.7435L15.8661 14.7966H9.2858Z" fill="#AEAFB0" stroke="black" stroke-width="1.07692"/>
</g>
<path opacity="0.3" d="M23.3647 32.3936C22.733 32.0629 21.0094 32.6196 20.5604 32.9085C20.4134 32.6469 20.2466 32.3604 20.0658 32.0671C19.1411 30.5674 18.357 29.6983 17.6684 29.4103C17.6408 29.3987 17.6122 29.3895 17.5831 29.3826C17.524 29.3686 16.093 29.0415 12.3557 29.0415C8.61828 29.0415 7.18726 29.3687 7.12816 29.3826C7.09896 29.3895 7.07044 29.3987 7.04281 29.4103C6.35432 29.6984 5.57013 30.5674 4.64549 32.0671C4.46465 32.3604 4.2978 32.6469 4.15084 32.9085C3.70184 32.6196 1.97824 32.0629 1.34658 32.3936C0.694773 32.7349 0.955938 33.8089 1.34658 34.1002C1.59046 34.2821 2.2596 34.3374 2.96425 34.2906C2.80483 34.5029 2.67919 34.7419 2.59414 34.9992C3.70539 35.2076 6.31758 35.1985 5.92719 36.0455C5.356 37.2843 3.59793 37.1128 2.51421 36.562L2.71657 40.0549C2.71657 40.8712 3.37828 41.5328 4.19452 41.5328H5.08331C5.89956 41.5328 6.56121 40.8712 6.56121 40.0549L6.53221 39.7418H18.1791L18.1501 40.0549C18.1501 40.8712 18.8117 41.5328 19.628 41.5328H20.5168C21.333 41.5328 21.9947 40.8712 21.9947 40.0549L22.197 36.562C21.1134 37.1128 19.3553 37.2844 18.7841 36.0455C18.3937 35.1985 21.0059 35.2076 22.1172 34.9992C22.0321 34.7418 21.9065 34.5029 21.7471 34.2906C22.4517 34.3375 23.1208 34.2821 23.3647 34.1002C23.7553 33.8089 24.0165 32.7349 23.3647 32.3936ZM15.1995 38.1003H9.51165L8.92066 35.9454H15.7904L15.1995 38.1003ZM5.17871 33.2992C5.88621 32.0614 6.79032 30.7395 7.42213 30.4348C7.68704 30.3828 9.13233 30.1319 12.3556 30.1319C15.5826 30.1319 17.0275 30.3834 17.2889 30.4348C17.92 30.739 18.8243 32.0611 19.5322 33.2992H5.17871Z" fill="url(#paint0_linear_113_4564)"/>
<mask id="mask1_113_4564" style="mask-type:alpha" maskUnits="userSpaceOnUse" x="0" y="28" width="24" height="16">
<path d="M4.27723 32.4356L2.13861 35.2871V35.7624L0 39.0891L1.90099 43.1287L7.36634 43.3663H20.4356L24 37.1881L20.4356 32.4356L18.297 28.6337L5.94059 29.1089L4.27723 32.4356Z" fill="#404040"/>
</mask>
<g mask="url(#mask1_113_4564)">
<path d="M23.3659 32.3936C22.7342 32.0629 21.0106 32.6196 20.5616 32.9085C20.4146 32.6469 20.2478 32.3604 20.067 32.0671C19.1423 30.5674 18.3582 29.6983 17.6697 29.4103C17.642 29.3987 17.6135 29.3895 17.5843 29.3826C17.5253 29.3686 16.0942 29.0415 12.3569 29.0415C8.6195 29.0415 7.18848 29.3687 7.12938 29.3826C7.10018 29.3895 7.07166 29.3987 7.04403 29.4103C6.35554 29.6984 5.57135 30.5674 4.64671 32.0671C4.46587 32.3604 4.29902 32.6469 4.15206 32.9085C3.70306 32.6196 1.97946 32.0629 1.3478 32.3936C0.695994 32.7349 0.957159 33.8089 1.3478 34.1002C1.59168 34.2821 2.26082 34.3374 2.96547 34.2906C2.80605 34.5029 2.68042 34.7419 2.59536 34.9992C3.70661 35.2076 6.3188 35.1985 5.92841 36.0455C5.35722 37.2843 3.59915 37.1128 2.51543 36.562L2.71779 40.0549C2.71779 40.8712 3.3795 41.5328 4.19574 41.5328H5.08453C5.90078 41.5328 6.56243 40.8712 6.56243 40.0549L6.53343 39.7418H18.1803L18.1513 40.0549C18.1513 40.8712 18.813 41.5328 19.6292 41.5328H20.518C21.3342 41.5328 21.9959 40.8712 21.9959 40.0549L22.1983 36.562C21.1146 37.1128 19.3565 37.2844 18.7853 36.0455C18.3949 35.1985 21.0071 35.2076 22.1184 34.9992C22.0333 34.7418 21.9077 34.5029 21.7483 34.2906C22.4529 34.3375 23.1221 34.2821 23.3659 34.1002C23.7565 33.8089 24.0177 32.7349 23.3659 32.3936ZM15.2007 38.1003H9.51287L8.92188 35.9454H15.7917L15.2007 38.1003ZM5.17993 33.2992C5.88743 32.0614 6.79154 30.7395 7.42335 30.4348C7.68826 30.3828 9.13355 30.1319 12.3568 30.1319C15.5838 30.1319 17.0287 30.3834 17.2901 30.4348C17.9212 30.739 18.8255 32.0611 19.5334 33.2992H5.17993Z" fill="url(#paint1_linear_113_4564)"/>
<path opacity="0.3" d="M9.2858 38.7966L7.96973 35.2871H16.7435L15.8661 38.7966H9.2858Z" fill="url(#paint2_linear_113_4564)"/>
</g>
<defs>
<linearGradient id="paint0_linear_113_4564" x1="0.949708" y1="35.2872" x2="23.2714" y2="38.5947" gradientUnits="userSpaceOnUse">
<stop stop-color="#FE9B25"/>
<stop offset="0.994792" stop-color="#FF5922"/>
</linearGradient>
<linearGradient id="paint1_linear_113_4564" x1="0.950929" y1="35.2872" x2="23.2727" y2="38.5947" gradientUnits="userSpaceOnUse">
<stop stop-color="#FE9B25"/>
<stop offset="0.994792" stop-color="#FF5922"/>
</linearGradient>
<linearGradient id="paint2_linear_113_4564" x1="7.96973" y1="37.0418" x2="16.3968" y2="38.7512" gradientUnits="userSpaceOnUse">
<stop stop-color="#FE9B25"/>
<stop offset="0.994792" stop-color="#FF5922"/>
</linearGradient>
</defs>
</svg>
