<svg width="48" height="96" viewBox="0 0 24 48" fill="none" xmlns="http://www.w3.org/2000/svg">
<path opacity="0.3" fill-rule="evenodd" clip-rule="evenodd" d="M4.11279 3.4445L11.6367 2.03377C11.8768 1.98874 12.1233 1.98874 12.3634 2.03377L19.8873 3.4445V12.5967C19.8873 15.4897 18.3969 18.1787 15.9437 19.712L12.5226 21.8501C12.2029 22.05 11.7972 22.05 11.4775 21.8501L8.05642 19.712C5.60314 18.1787 4.11279 15.4897 4.11279 12.5967V3.4445Z" fill="black"/>
<path fill-rule="evenodd" clip-rule="evenodd" d="M12.0001 10.3458C10.9111 10.3458 10.0283 9.46304 10.0283 8.37404C10.0283 7.28503 10.9111 6.40222 12.0001 6.40222C13.0891 6.40222 13.9719 7.28503 13.9719 8.37404C13.9719 9.46304 13.0891 10.3458 12.0001 10.3458Z" fill="black"/>
<path fill-rule="evenodd" clip-rule="evenodd" d="M7.07091 15.7679C7.28322 12.827 9.40492 11.3318 11.991 11.3318C14.6134 11.3318 16.768 12.7448 16.9285 15.7684C16.9349 15.8888 16.9285 16.2613 16.517 16.2613C14.4874 16.2613 11.4714 16.2613 7.46903 16.2613C7.33166 16.2613 7.05935 15.9281 7.07091 15.7679Z" fill="black"/>
<path opacity="0.3" fill-rule="evenodd" clip-rule="evenodd" d="M4.11279 27.4445L11.6367 26.0338C11.8768 25.9887 12.1233 25.9887 12.3634 26.0338L19.8873 27.4445V36.5967C19.8873 39.4897 18.3969 42.1787 15.9437 43.712L12.5226 45.8501C12.2029 46.05 11.7972 46.05 11.4775 45.8501L8.05642 43.712C5.60314 42.1787 4.11279 39.4897 4.11279 36.5967V27.4445Z" fill="url(#paint0_linear_113_4562)"/>
<path fill-rule="evenodd" clip-rule="evenodd" d="M12.0001 34.3458C10.9111 34.3458 10.0283 33.463 10.0283 32.374C10.0283 31.285 10.9111 30.4022 12.0001 30.4022C13.0891 30.4022 13.9719 31.285 13.9719 32.374C13.9719 33.463 13.0891 34.3458 12.0001 34.3458Z" fill="url(#paint1_linear_113_4562)"/>
<path fill-rule="evenodd" clip-rule="evenodd" d="M7.07091 39.7679C7.28322 36.827 9.40492 35.3318 11.991 35.3318C14.6134 35.3318 16.768 36.7448 16.9285 39.7684C16.9349 39.8888 16.9285 40.2613 16.517 40.2613C14.4874 40.2613 11.4714 40.2613 7.46903 40.2613C7.33166 40.2613 7.05935 39.9281 7.07091 39.7679Z" fill="url(#paint2_linear_113_4562)"/>
<defs>
<linearGradient id="paint0_linear_113_4562" x1="4.11279" y1="36" x2="19.823" y2="37.0054" gradientUnits="userSpaceOnUse">
<stop stop-color="#FE9B25"/>
<stop offset="0.994792" stop-color="#FF5922"/>
</linearGradient>
<linearGradient id="paint1_linear_113_4562" x1="10.0283" y1="32.374" x2="13.9462" y2="32.6919" gradientUnits="userSpaceOnUse">
<stop stop-color="#FE9B25"/>
<stop offset="0.994792" stop-color="#FF5922"/>
</linearGradient>
<linearGradient id="paint2_linear_113_4562" x1="7.07056" y1="37.7966" x2="16.6767" y2="39.3554" gradientUnits="userSpaceOnUse">
<stop stop-color="#FE9B25"/>
<stop offset="0.994792" stop-color="#FF5922"/>
</linearGradient>
</defs>
</svg>
