<svg width="50" height="50" viewBox="0 0 50 50" fill="none" xmlns="http://www.w3.org/2000/svg">
<path opacity="0.15" d="M50 25C50 38.8071 38.8071 50 25 50C11.1929 50 0 38.8071 0 25C0 11.1929 11.1929 0 25 0C38.8071 0 50 11.1929 50 25Z" fill="#27A87A"/>
<path d="M27.5 22.4999C27.5 21.1192 26.3807 19.9999 25 19.9999C23.6193 19.9999 22.5 21.1192 22.5 22.4999V34.9999C22.5 36.3806 23.6193 37.4999 25 37.4999C26.3807 37.4999 27.5 36.3806 27.5 34.9999V22.4999Z" fill="#27A87A"/>
<path d="M27.5 14.9999C27.5 13.6192 26.3807 12.4999 25 12.4999C23.6193 12.4999 22.5 13.6192 22.5 14.9999C22.5 16.3806 23.6193 17.4999 25 17.4999C26.3807 17.4999 27.5 16.3806 27.5 14.9999Z" fill="#27A87A"/>
</svg>
