<svg width="140" height="63" viewBox="0 0 140 63" fill="none" xmlns="http://www.w3.org/2000/svg">
<path d="M134.211 32.5127C135.23 32.5286 140.034 31.5969 139.999 33.6324C139.581 36.3693 130.452 30.9404 117.156 39.6065C121.738 35.7711 127.974 33.1215 134.211 32.5127Z" fill="url(#paint0_linear_45663_47296)"/>
<path d="M118.25 39.9482C127.366 41.5364 131.702 52.6536 128.793 52.7515C127.025 52.6483 127.76 50.5546 126.94 48.6197C125.609 44.4481 122.212 41.3008 118.25 39.9482Z" fill="url(#paint1_linear_45663_47296)"/>
<path d="M126.271 26.115C127.679 28.1637 120.402 28.619 116.654 38.1215C117.452 34.6284 119.122 31.3946 121.509 28.7222C122.681 27.6476 125.021 24.3865 126.271 26.115Z" fill="url(#paint2_linear_45663_47296)"/>
<path d="M122.994 51.2952C123.184 52.5895 124.765 55.8744 122.676 56.1232C120.206 56.3244 123.423 49.7705 117.139 41.7344C119.9 44.3489 121.92 47.6475 122.994 51.2952Z" fill="url(#paint3_linear_45663_47296)"/>
<path d="M116.346 19.037C118.353 19.3969 116.113 24.8841 116.346 26.5702C115.974 30.4819 115.982 34.4206 116.373 38.3306C115.571 35.8557 113.305 18.084 116.346 19.037Z" fill="url(#paint4_linear_45663_47296)"/>
<path d="M103.405 23.0655C104.977 20.3312 114.819 30.7152 115.941 39.0954C112.143 26.7844 102.214 25.3154 103.405 23.0655Z" fill="url(#paint5_linear_45663_47296)"/>
<path d="M114.211 40.0721C103.832 31.8216 96.7169 38.2642 96.0181 35.6173C95.7772 33.9232 97.9795 34.0291 100.322 33.9444C105.298 33.9285 110.87 36.2631 114.211 40.0721Z" fill="url(#paint6_linear_45663_47296)"/>
<path d="M115.568 40.0479C104.662 42.6789 103.516 51.9168 101.367 50.7362C98.6141 49.3413 107.778 40.5137 115.568 40.0479Z" fill="url(#paint7_linear_45663_47296)"/>
<path d="M115.928 40.9996C109.485 46.599 111.949 53.2395 110.084 53.1956C107.736 53.2184 110.83 44.0447 115.928 40.9996Z" fill="url(#paint8_linear_45663_47296)"/>
<path d="M14.832 56.3401C15.0012 55.2461 15.2618 54.1681 15.611 53.1175C15.9382 52.0839 16.3205 51.0685 16.7563 50.0758C17.6266 48.1006 18.6449 46.1941 19.8027 44.3725L20.693 43.0278C20.9851 42.5641 21.3189 42.1561 21.6203 41.7156C22.237 40.8393 22.9279 40.0139 23.6003 39.1793C23.9295 38.7573 24.2958 38.3632 24.6528 37.9644L25.7239 36.7681C26.4612 35.9938 27.2216 35.238 27.9681 34.4775C27.2541 35.2751 26.5307 36.0587 25.8259 36.8609L24.8151 38.1035C24.4766 38.5162 24.1335 38.9196 23.8228 39.3555C23.1922 40.2179 22.5431 41.0618 21.9681 41.9614C21.6806 42.425 21.3653 42.8377 21.0964 43.2968L20.2803 44.6878C19.2319 46.5185 18.325 48.4267 17.5678 50.3957C17.1853 51.3785 16.8571 52.3816 16.5847 53.4004C16.3016 54.3947 16.1 55.4104 15.982 56.4375V56.4792C15.9563 56.6201 15.8787 56.7462 15.7644 56.8325C15.6501 56.9187 15.5075 56.9588 15.365 56.9448C15.2225 56.9308 15.0905 56.8637 14.9952 56.7568C14.8999 56.6499 14.8483 56.5111 14.8506 56.368L14.832 56.3401Z" fill="url(#paint9_linear_45663_47296)"/>
<path d="M0.303995 34.6169C1.26988 34.0781 2.27968 33.6221 3.32257 33.2537C4.34142 32.882 5.37829 32.5617 6.42924 32.2939C8.52377 31.7697 10.6551 31.4054 12.8049 31.2042L14.4092 31.079C14.9471 31.0327 15.4849 31.0419 16.0228 31.0188C17.0939 30.9678 18.1697 31.0188 19.2408 31.0188C19.774 31.0188 20.3119 31.0651 20.8451 31.1022L22.4448 31.2135C23.5113 31.3202 24.5731 31.4593 25.6349 31.5798C24.5685 31.5056 23.502 31.4129 22.4355 31.3526L20.8358 31.3109C20.3026 31.3109 19.7694 31.2784 19.2361 31.3109C18.1697 31.3387 17.1032 31.3433 16.0414 31.4407C15.5128 31.4871 14.9795 31.5056 14.4509 31.5752L12.8698 31.7653C10.7696 32.0581 8.69423 32.5076 6.66108 33.11C5.65159 33.4154 4.65806 33.7714 3.68424 34.1764C2.72086 34.5643 1.79046 35.0295 0.902148 35.5675H0.869687C0.806969 35.6074 0.73702 35.6345 0.663812 35.6474C0.590605 35.6602 0.515574 35.6585 0.443023 35.6424C0.370472 35.6262 0.301818 35.5959 0.240969 35.5533C0.18012 35.5106 0.128269 35.4563 0.0883847 35.3936C0.0485007 35.3309 0.0213663 35.2609 0.00851957 35.1877C-0.00432716 35.1145 -0.00263164 35.0395 0.0135147 34.9669C0.029661 34.8944 0.0599388 34.8257 0.10262 34.7649C0.145301 34.704 0.199547 34.6522 0.262265 34.6123L0.303995 34.6169Z" fill="url(#paint10_linear_45663_47296)"/>
<path d="M6.75862 13.6162C7.82968 13.8902 8.87647 14.2515 9.88848 14.6966C10.8862 15.1236 11.8612 15.6018 12.8097 16.1294C14.694 17.1821 16.4953 18.3773 18.1976 19.7044L19.4496 20.7152C19.8715 21.049 20.261 21.4246 20.6644 21.7724C21.4852 22.4725 22.2363 23.2376 22.9828 23.9888C23.3723 24.3551 23.7294 24.7538 24.0957 25.148L25.1853 26.3257C25.8855 27.1372 26.5764 27.9672 27.2534 28.7832C26.5254 27.995 25.8159 27.1974 25.0833 26.4231L23.9427 25.2964C23.5624 24.9208 23.1915 24.5406 22.7881 24.1928C21.9906 23.4787 21.2116 22.7554 20.3723 22.097C19.955 21.7677 19.5562 21.4153 19.125 21.1047L17.8406 20.1773C16.1115 18.9485 14.2918 17.8526 12.397 16.8991C11.4533 16.4278 10.486 16.0053 9.49898 15.6332C8.53686 15.2597 7.54594 14.9651 6.53605 14.7522H6.49896C6.42589 14.7382 6.3563 14.71 6.29415 14.6691C6.232 14.6282 6.17852 14.5754 6.13675 14.5139C6.09499 14.4523 6.06576 14.3831 6.05073 14.3102C6.03571 14.2374 6.03519 14.1622 6.04919 14.0892C6.0632 14.0161 6.09145 13.9465 6.13235 13.8844C6.17325 13.8222 6.226 13.7687 6.28757 13.727C6.34914 13.6852 6.41834 13.656 6.49121 13.6409C6.56408 13.6259 6.63918 13.6254 6.71225 13.6394L6.75862 13.6162Z" fill="url(#paint11_linear_45663_47296)"/>
<path d="M4.67733 28.1394C6.03463 27.9163 7.40578 27.7877 8.7809 27.7546C11.4828 27.6729 14.186 27.8655 16.849 28.3295C18.1751 28.5475 19.4827 28.8721 20.7717 29.2152C19.4581 28.9782 18.1334 28.808 16.8026 28.7051C15.4779 28.5962 14.1483 28.5591 12.8196 28.5938C11.4986 28.6199 10.1799 28.7159 8.869 28.8813C7.57577 29.0368 6.29461 29.2801 5.03436 29.6093H5.00654C4.90917 29.6415 4.80627 29.6535 4.70412 29.6446C4.60196 29.6358 4.50267 29.6062 4.4123 29.5577C4.32193 29.5093 4.24237 29.4429 4.17845 29.3627C4.11454 29.2826 4.0676 29.1902 4.04052 29.0913C4.01343 28.9924 4.00675 28.889 4.02089 28.7875C4.03503 28.6859 4.06968 28.5883 4.12274 28.5005C4.17581 28.4128 4.24618 28.3368 4.32957 28.2771C4.41295 28.2174 4.5076 28.1753 4.60776 28.1533L4.67733 28.1394Z" fill="url(#paint12_linear_45663_47296)"/>
<path d="M34.4256 53.0017C34.5288 51.7354 34.5458 50.4636 34.4766 49.1949C34.4168 47.9079 34.2899 46.6248 34.0964 45.351C33.903 44.0682 33.6446 42.7961 33.322 41.5395C33.0114 40.2783 32.5941 39.0449 32.1582 37.8301C32.7268 39.0072 33.2344 40.2128 33.6791 41.4422C34.5777 43.9239 35.2224 46.4904 35.6034 49.1022C35.8033 50.4302 35.9133 51.7702 35.9326 53.113C35.9326 53.3135 35.853 53.5057 35.7112 53.6475C35.5695 53.7892 35.3772 53.8688 35.1768 53.8688C34.9763 53.8688 34.7841 53.7892 34.6423 53.6475C34.5006 53.5057 34.421 53.3135 34.421 53.113V53.011L34.4256 53.0017Z" fill="url(#paint13_linear_45663_47296)"/>
<path d="M54.1645 35.9195C53.0356 35.3385 51.8692 34.8335 50.6729 34.4079C49.4567 33.9701 48.2185 33.5955 46.9635 33.2858C45.7076 32.9676 44.4352 32.7183 43.152 32.5393C41.8623 32.3531 40.5638 32.2339 39.2617 32.1823C40.5684 32.115 41.8778 32.115 43.1845 32.1823C44.4995 32.2374 45.8106 32.3644 47.1118 32.5625C48.4199 32.7553 49.7169 33.0169 50.9975 33.3461C52.2989 33.6707 53.577 34.0827 54.8229 34.5795C54.9233 34.6105 55.0162 34.6622 55.0955 34.7312C55.1748 34.8001 55.2389 34.8849 55.2836 34.98C55.3284 35.0751 55.3528 35.1785 55.3553 35.2836C55.3578 35.3887 55.3383 35.4932 55.2982 35.5903C55.258 35.6874 55.198 35.7751 55.1221 35.8478C55.0461 35.9205 54.9558 35.9765 54.857 36.0122C54.7581 36.048 54.6529 36.0628 54.548 36.0556C54.4432 36.0484 54.341 36.0195 54.2479 35.9705L54.183 35.9427L54.1645 35.9195Z" fill="url(#paint14_linear_45663_47296)"/>
<path d="M48.8931 18.9209C47.6799 19.2912 46.4932 19.7436 45.3413 20.2749C42.9853 21.3459 40.7436 22.6524 38.6504 24.1744C37.5932 24.9256 36.5963 25.7695 35.6133 26.6273C36.4943 25.665 37.4228 24.7473 38.3954 23.8777C39.378 23.0038 40.4057 22.1819 41.4742 21.4155C42.5463 20.6431 43.6575 19.9266 44.8034 19.2687C45.9615 18.5908 47.1654 17.9943 48.4063 17.4835C48.5002 17.4271 48.6052 17.3916 48.7141 17.3796C48.823 17.3676 48.9333 17.3792 49.0373 17.4137C49.1413 17.4482 49.2365 17.5048 49.3166 17.5796C49.3967 17.6544 49.4597 17.7456 49.5013 17.847C49.5429 17.9484 49.562 18.0575 49.5575 18.167C49.5529 18.2765 49.5248 18.3837 49.475 18.4813C49.4251 18.5789 49.3548 18.6645 49.2688 18.7324C49.1828 18.8003 49.0831 18.8488 48.9766 18.8745L48.907 18.8977L48.8931 18.9209Z" fill="url(#paint15_linear_45663_47296)"/>
<path d="M32.7895 6.64744C32.8173 8.01066 32.7895 9.34143 32.7385 10.6815C32.6875 12.0215 32.6133 13.3569 32.4974 14.6877C32.3814 16.0184 32.2516 17.3446 32.0754 18.6707C31.8992 19.9968 31.6905 21.3091 31.4587 22.6166C31.5653 21.2905 31.6581 19.9644 31.6998 18.6383C31.7416 17.3121 31.7601 15.986 31.7415 14.6599C31.723 13.3337 31.6813 12.0122 31.6071 10.6954C31.5329 9.37852 31.4309 8.04776 31.2825 6.76336C31.2591 6.56414 31.3159 6.3638 31.4402 6.20641C31.5646 6.04901 31.7463 5.94746 31.9456 5.9241C32.1448 5.90073 32.3451 5.95746 32.5025 6.08181C32.6599 6.20616 32.7615 6.38794 32.7848 6.58716C32.7848 6.58716 32.7848 6.62426 32.7895 6.64744Z" fill="url(#paint16_linear_45663_47296)"/>
<path d="M11.7758 49.195C12.4566 48.0007 13.2204 46.8556 14.0617 45.7684C14.8797 44.6876 15.7558 43.652 16.6862 42.6663C17.6056 41.6811 18.576 40.7447 19.5934 39.8611C20.5996 38.9662 21.6707 38.1594 22.7557 37.3711C21.7436 38.2491 20.7763 39.1777 19.8577 40.1532C18.0301 42.076 16.4005 44.1778 14.9937 46.4268C14.2993 47.5293 13.6796 48.6772 13.139 49.8627V49.8905C13.0578 50.075 12.9067 50.2196 12.7189 50.2927C12.5311 50.3657 12.3219 50.3612 12.1374 50.28C11.953 50.1988 11.8083 50.0477 11.7353 49.8599C11.6622 49.6721 11.6668 49.4629 11.7479 49.2784L11.7758 49.195Z" fill="url(#paint17_linear_45663_47296)"/>
<path d="M13.7779 10.7051C14.9263 11.4625 16.0216 12.2975 17.0561 13.2043C19.1075 14.9733 20.972 16.9481 22.6203 19.0977C23.4374 20.1638 24.2003 21.2703 24.9063 22.413C24.1004 21.3474 23.2415 20.3229 22.3328 19.3435C20.5306 17.3973 18.5359 15.6387 16.3792 14.0946C15.324 13.3306 14.2179 12.6396 13.0685 12.0266H13.0406C12.9527 11.9806 12.8746 11.9177 12.8109 11.8416C12.7472 11.7655 12.6991 11.6775 12.6694 11.5828C12.6397 11.4881 12.6289 11.3884 12.6377 11.2895C12.6465 11.1906 12.6747 11.0945 12.7207 11.0065C12.7667 10.9185 12.8295 10.8404 12.9057 10.7767C12.9818 10.713 13.0698 10.6649 13.1645 10.6352C13.2592 10.6055 13.3589 10.5948 13.4578 10.6036C13.5566 10.6124 13.6528 10.6406 13.7408 10.6865L13.7779 10.7051Z" fill="url(#paint18_linear_45663_47296)"/>
<path d="M47.1397 3.95791C46.9543 4.07383 46.6992 4.2593 46.4767 4.42159C46.2541 4.58388 46.013 4.78326 45.7904 4.9641C45.5678 5.14493 45.3267 5.34895 45.1134 5.5437C44.9001 5.73844 44.6498 5.93783 44.455 6.14649L43.8059 6.76782L43.1752 7.41698C42.7487 7.83893 42.3638 8.30724 41.9558 8.75702C40.3669 10.605 38.9222 12.5721 37.6343 14.6411L36.7069 16.2177C36.3823 16.7416 36.118 17.298 35.8213 17.8359C35.2185 18.907 34.7084 20.0291 34.1798 21.1466C33.9062 21.6984 33.679 22.2733 33.4426 22.8437L32.7331 24.5593C32.2973 25.7139 31.8985 26.8777 31.4766 28.0554C31.7919 26.8591 32.0886 25.6489 32.4039 24.4526L32.9603 22.6721C33.1458 22.0786 33.322 21.4804 33.5492 20.8962C33.9804 19.7277 34.3931 18.55 34.9078 17.4047C35.1582 16.8343 35.3715 16.2455 35.659 15.6844L36.4797 13.992C37.6226 11.7402 38.9339 9.57794 40.4024 7.52362C40.7873 7.01357 41.149 6.49425 41.5616 6.00275L42.1644 5.26085L42.795 4.53287C43.0052 4.29176 43.2232 4.05528 43.4488 3.82344C43.676 3.5916 43.8847 3.35976 44.1258 3.12792C44.3669 2.89608 44.5895 2.66423 44.8399 2.45094C45.0903 2.23765 45.3035 2.01972 45.6374 1.77397C45.7737 1.65559 45.9328 1.56631 46.1049 1.51159C46.277 1.45686 46.4584 1.43786 46.6381 1.45573C46.8178 1.47361 46.9919 1.52798 47.1498 1.61553C47.3077 1.70309 47.4461 1.82197 47.5564 1.96489C47.6668 2.10781 47.7468 2.27175 47.7916 2.44668C47.8363 2.62161 47.8449 2.80384 47.8167 2.98219C47.7885 3.16054 47.7242 3.33127 47.6278 3.4839C47.5313 3.63652 47.4047 3.76784 47.2557 3.86981L47.1583 3.93936L47.1397 3.95791Z" fill="url(#paint19_linear_45663_47296)"/>
<path d="M61.5231 22.1665C61.3098 22.1294 60.9992 22.0923 60.721 22.0691C60.4428 22.0459 60.1414 22.032 59.8539 22.0135C59.5664 21.9949 59.265 22.0135 58.9729 21.9856C58.6808 21.9578 58.3794 21.9856 58.0826 21.9856H57.1924L56.2975 22.0459C55.6993 22.0459 55.1058 22.1479 54.5076 22.2082C52.1095 22.4912 49.7363 22.9562 47.4087 23.5992C46.2448 23.9516 45.0903 24.2809 43.9357 24.7167C43.3607 24.93 42.7765 25.1062 42.2154 25.3473L40.523 26.0521C39.9527 26.2747 39.4009 26.5158 38.8491 26.8033L37.1891 27.5915C36.0948 28.148 35.0237 28.7507 33.9434 29.3303C34.9727 28.658 35.9928 27.9625 37.0361 27.3041L38.6312 26.3767C39.1598 26.0614 39.693 25.7461 40.2448 25.4493L41.8909 24.5869C42.4334 24.2948 43.0083 24.0583 43.5694 23.794C44.6869 23.2468 45.8461 22.8063 47.0053 22.338C49.3466 21.4661 51.7507 20.7732 54.197 20.2654C54.8183 20.1448 55.435 20.0103 56.0517 19.9222L56.9791 19.7785L57.9296 19.6719C58.2449 19.6301 58.5602 19.6023 58.857 19.5838C59.1537 19.5652 59.4969 19.5328 59.8168 19.5235C60.1367 19.5142 60.4613 19.4957 60.7952 19.5235C61.129 19.5513 61.4304 19.5235 61.8292 19.5559C62.1791 19.5824 62.5041 19.7467 62.7328 20.0128C62.9615 20.2789 63.0751 20.6249 63.0487 20.9748C63.0222 21.3247 62.8579 21.6497 62.5918 21.8784C62.3257 22.1071 61.9797 22.2207 61.6298 22.1943H61.5092L61.5231 22.1665Z" fill="url(#paint20_linear_45663_47296)"/>
<path d="M11.7716 0.225463C12.1101 0.448031 12.3512 0.638146 12.6201 0.846802C12.889 1.05546 13.1348 1.26411 13.3898 1.47277C13.6448 1.68143 13.8767 1.904 14.1224 2.12193C14.3682 2.33986 14.5861 2.55778 14.8319 2.78499L15.5181 3.4666L16.1812 4.16676C16.6449 4.63044 17.0344 5.12195 17.4563 5.60417C19.0864 7.55457 20.5666 9.6254 21.8845 11.799L22.835 13.4404C23.1642 13.9783 23.4285 14.5579 23.7253 15.1096C24.022 15.6614 24.3188 16.2178 24.5692 16.7975L25.3482 18.5131C25.6171 19.0834 25.8443 19.6676 26.0762 20.2519L26.7624 22C27.189 23.1777 27.5738 24.3694 27.9772 25.5471C27.4718 24.4065 26.985 23.2565 26.461 22.1252L25.6217 20.4559C25.3482 19.8995 25.0746 19.3431 24.7547 18.8052L23.8273 17.1869C23.5305 16.6398 23.1735 16.1298 22.8489 15.6058C22.5244 15.0818 22.209 14.5486 21.8381 14.0478L20.7716 12.5362C19.3195 10.5632 17.7198 8.70318 15.9864 6.97203C15.5459 6.55008 15.1194 6.11422 14.6603 5.7201L13.9833 5.11267L13.2832 4.53771C13.0513 4.3476 12.8195 4.15749 12.5737 3.98129C12.328 3.80509 12.1101 3.61498 11.855 3.45269C11.6 3.2904 11.3913 3.10493 11.1224 2.95656C10.8535 2.80818 10.6124 2.63197 10.4176 2.52996C10.2509 2.4562 10.1013 2.34876 9.97814 2.21439C9.85498 2.08001 9.76095 1.9216 9.70196 1.74913C9.64298 1.57666 9.62031 1.39386 9.63539 1.2122C9.65046 1.03055 9.70296 0.853976 9.78957 0.693588C9.87618 0.533201 9.99502 0.392469 10.1386 0.280233C10.2823 0.167996 10.4476 0.0866807 10.6241 0.0414086C10.8007 -0.0038635 10.9847 -0.0121193 11.1646 0.0171618C11.3446 0.0464429 11.5165 0.112627 11.6696 0.211554L11.7716 0.225463Z" fill="url(#paint21_linear_45663_47296)"/>
<path d="M0.44775 47.9198C0.688864 47.5998 0.911437 47.368 1.12009 47.113C1.32875 46.8579 1.58377 46.6493 1.79707 46.3896C2.01036 46.13 2.26075 45.9259 2.49259 45.7034C2.72443 45.4808 2.95627 45.2397 3.20666 45.0403L3.93 44.4004L4.6719 43.7884C5.1634 43.371 5.68272 43.0001 6.19277 42.6106C8.25177 41.1137 10.4219 39.776 12.6843 38.609L14.386 37.7698C14.9425 37.4776 15.536 37.2597 16.1109 37.0001C16.6859 36.7404 17.2562 36.4761 17.8497 36.2674L19.6071 35.6136C20.1913 35.3818 20.7895 35.1963 21.3876 35.0062L23.1774 34.4359C24.383 34.0928 25.5979 33.7914 26.7988 33.4668C25.6257 33.8934 24.4479 34.3014 23.2841 34.7512L21.5638 35.4699C20.9889 35.711 20.4139 35.9336 19.8575 36.2257L18.1789 37.0047C17.6133 37.2597 17.0847 37.5843 16.5329 37.8718C15.9811 38.1593 15.4339 38.4421 14.9146 38.7991L13.3335 39.759C11.2603 41.0743 9.2902 42.5453 7.44008 44.1593C6.9764 44.5673 6.51271 44.9661 6.10003 45.3973L5.45088 46.0326L4.82955 46.6956C4.62089 46.9089 4.41688 47.1315 4.22677 47.3633C4.03666 47.5952 3.82336 47.827 3.64716 48.045C3.47097 48.2629 3.26694 48.5086 3.10001 48.7405C2.93308 48.9723 2.74761 49.2273 2.63633 49.4128C2.44034 49.6837 2.14894 49.8703 1.82087 49.9349C1.49279 49.9994 1.15243 49.9372 0.868386 49.7608C0.584343 49.5844 0.377734 49.3069 0.290213 48.9841C0.202691 48.6614 0.240767 48.3175 0.396751 48.0218C0.409775 47.9859 0.426883 47.9517 0.44775 47.9198Z" fill="url(#paint22_linear_45663_47296)"/>
<path d="M59.0565 47.0015C58.9267 46.8207 58.7273 46.5703 58.5418 46.3524C58.3563 46.1344 58.1431 45.8887 57.9483 45.6847C57.7536 45.4806 57.5263 45.2534 57.3177 45.0355C57.109 44.8176 56.8911 44.6089 56.6685 44.4003L56.0008 43.7789L55.3053 43.1761C54.8416 42.7681 54.3779 42.4018 53.8725 42.0169C51.903 40.5122 49.8212 39.1605 47.6453 37.9736L45.9899 37.1066C45.4382 36.8052 44.8586 36.5733 44.2975 36.2997C43.1708 35.7526 42.0023 35.2982 40.8384 34.8299C40.2635 34.5841 39.6653 34.3662 39.0718 34.1807L37.2913 33.564C36.0903 33.1884 34.8801 32.85 33.6699 32.4883C34.9033 32.7433 36.146 32.952 37.3794 33.2441L39.2341 33.7078C39.8461 33.8608 40.4629 34.0092 41.0656 34.2039C42.2758 34.5749 43.5 34.9272 44.687 35.3817C45.2805 35.6089 45.8926 35.7943 46.4768 36.0494L48.2388 36.7866C50.5902 37.8161 52.8596 39.0236 55.0271 40.3987C55.565 40.7557 56.1168 41.0942 56.6361 41.4837L57.4243 42.054L58.194 42.6522C58.4537 42.8516 58.7087 43.0556 58.9545 43.2735C59.2002 43.4915 59.4599 43.6908 59.701 43.9227C59.9421 44.1545 60.1925 44.3864 60.429 44.6089C60.6655 44.8315 60.8927 45.0726 61.157 45.3786C61.2708 45.5099 61.3577 45.6622 61.4127 45.827C61.4677 45.9918 61.4897 46.1659 61.4774 46.3392C61.4652 46.5125 61.4189 46.6817 61.3412 46.8371C61.2636 46.9925 61.156 47.1311 61.0248 47.245C60.8936 47.3588 60.7412 47.4457 60.5764 47.5007C60.4116 47.5557 60.2376 47.5777 60.0643 47.5654C59.891 47.5531 59.7218 47.5068 59.5664 47.4292C59.411 47.3515 59.2724 47.244 59.1585 47.1128L59.0843 47.0201L59.0565 47.0015Z" fill="url(#paint23_linear_45663_47296)"/>
<path d="M42.2491 61.6079C42.2629 61.3329 42.2629 61.0575 42.2491 60.7825C42.2491 60.495 42.2167 60.1936 42.2027 59.9015C42.1888 59.6094 42.1425 59.3034 42.1146 59.0066C42.0868 58.7099 42.0497 58.4085 41.9987 58.1117L41.8643 57.2122L41.6927 56.3173C41.5907 55.7191 41.433 55.1256 41.2986 54.5321C40.704 52.146 39.9289 49.8085 38.9801 47.5398L38.2243 45.8427C37.9879 45.2677 37.6772 44.7299 37.4083 44.1688C37.1393 43.6077 36.8704 43.0513 36.5505 42.5181L35.6231 40.8952C35.3263 40.3434 34.9832 39.8241 34.6494 39.2955L33.6432 37.7144C32.943 36.685 32.2058 35.6742 31.4824 34.6494C32.2892 35.6046 33.1146 36.5505 33.9121 37.5196L35.0574 39.0173C35.4423 39.5134 35.8318 40.0096 36.1795 40.5335L37.2274 42.1054C37.5984 42.6155 37.9044 43.1673 38.2429 43.7005C38.5814 44.2337 38.9292 44.7623 39.2259 45.3234L40.1533 46.9834C41.3453 49.237 42.3652 51.5775 43.2043 53.9849C43.4037 54.597 43.6216 55.1998 43.7839 55.8397L44.0482 56.767L44.2754 57.6944C44.3542 58.0051 44.4284 58.325 44.484 58.6218C44.5397 58.9185 44.6185 59.257 44.6649 59.5862C44.7113 59.9154 44.7715 60.2307 44.8086 60.5692C44.8457 60.9077 44.8828 61.2137 44.9014 61.6171C44.9174 61.9676 44.7934 62.3101 44.5569 62.5692C44.3204 62.8284 43.9906 62.9829 43.6401 62.9989C43.2897 63.0149 42.9472 62.891 42.6881 62.6545C42.4289 62.418 42.2744 62.0882 42.2584 61.7377V61.594L42.2491 61.6079Z" fill="url(#paint24_linear_45663_47296)"/>
<path d="M49.4672 52.1718C49.1153 51.1991 48.6858 50.2563 48.1828 49.3526C47.6814 48.4256 47.1303 47.5262 46.5321 46.6586C45.3294 44.913 43.9947 43.2621 42.5398 41.7204L41.4269 40.5751C41.0606 40.1902 40.6526 39.8471 40.2724 39.4762C39.5073 38.7343 38.6773 38.0619 37.8659 37.371C37.4625 37.0186 37.0359 36.7033 36.6093 36.3788L35.3388 35.405C34.4717 34.7837 33.5814 34.1902 32.7051 33.5781C33.6046 34.1485 34.5227 34.7049 35.4176 35.2891L36.7391 36.2165C37.175 36.5225 37.6201 36.8239 38.042 37.1438C38.8859 37.8023 39.7484 38.4421 40.5506 39.1562C40.954 39.5086 41.3806 39.8425 41.7701 40.2134L42.9432 41.317C44.4983 42.8209 45.9354 44.4424 47.2415 46.1671C47.8949 47.0331 48.5031 47.9323 49.0638 48.8611C49.6437 49.8026 50.1446 50.7905 50.5615 51.8147C50.5889 51.8838 50.6024 51.9577 50.6012 52.032C50.6001 52.1063 50.5844 52.1797 50.5549 52.248C50.5254 52.3162 50.4827 52.378 50.4293 52.4297C50.376 52.4815 50.3129 52.5223 50.2438 52.5497C50.1747 52.5771 50.1009 52.5906 50.0266 52.5895C49.9522 52.5883 49.8788 52.5726 49.8106 52.5431C49.7424 52.5136 49.6806 52.4709 49.6288 52.4176C49.5771 52.3642 49.5363 52.3012 49.5089 52.232L49.4672 52.1718Z" fill="url(#paint25_linear_45663_47296)"/>
<path d="M60.2249 31.5931C59.2748 31.1851 58.2932 30.8548 57.2897 30.6055C56.2743 30.3366 55.2356 30.1418 54.197 29.9749C52.0989 29.6602 49.98 29.5052 47.8585 29.5112L46.2634 29.5437C45.7302 29.5437 45.2016 29.6086 44.673 29.641C43.6065 29.692 42.5493 29.8358 41.4921 29.961C40.9589 30.012 40.4349 30.1094 39.911 30.1975L38.3298 30.4664C37.2819 30.675 36.2432 30.9301 35.1953 31.1434C36.2293 30.8744 37.2587 30.5823 38.302 30.3273L39.8692 29.9888C40.3932 29.8775 40.9171 29.7569 41.4457 29.6781C42.5076 29.5112 43.5601 29.3165 44.6312 29.2144C45.1645 29.1634 45.6977 29.08 46.2356 29.0475L47.8445 28.9455C50.0005 28.8397 52.1613 28.8986 54.3083 29.1217C55.3794 29.2469 56.4551 29.3999 57.5169 29.6318C58.601 29.8526 59.6649 30.1628 60.6978 30.5591C60.7697 30.5842 60.8357 30.6235 60.892 30.6747C60.9483 30.7259 60.9937 30.7879 61.0255 30.857C61.0573 30.9262 61.0748 31.001 61.0769 31.0771C61.0791 31.1532 61.0659 31.2289 61.0381 31.2997C61.0104 31.3706 60.9686 31.4351 60.9153 31.4894C60.862 31.5437 60.7983 31.5867 60.728 31.6159C60.6577 31.645 60.5822 31.6596 60.5061 31.6589C60.43 31.6582 60.3549 31.6421 60.2851 31.6117H60.262L60.2249 31.5931Z" fill="url(#paint26_linear_45663_47296)"/>
<path d="M50.9095 11.0382C49.9461 11.4096 49.0155 11.8609 48.1274 12.3875C47.212 12.9103 46.3252 13.4815 45.4705 14.0985C43.7517 15.3409 42.1302 16.7127 40.6204 18.2021L39.5029 19.3381C39.1273 19.7183 38.7888 20.131 38.4318 20.5205C37.7085 21.3041 37.0407 22.1434 36.3823 22.9733C36.0392 23.3814 35.7332 23.8219 35.4179 24.2485L34.4905 25.5468C33.8924 26.4278 33.3174 27.3273 32.7285 28.2222C33.2757 27.2949 33.8135 26.3675 34.3746 25.468L35.2602 24.1279C35.557 23.6642 35.8491 23.2284 36.1876 22.8064C36.8228 21.944 37.4442 21.0676 38.1397 20.2469C38.4828 19.8342 38.8074 19.403 39.1691 19.0089L40.2494 17.8079C41.717 16.2261 43.3028 14.7582 44.9929 13.4169C45.844 12.7441 46.7292 12.1157 47.6452 11.5343C48.5743 10.9341 49.5513 10.4114 50.5663 9.97171C50.6354 9.93995 50.7101 9.92242 50.786 9.92017C50.862 9.91792 50.9376 9.93098 51.0084 9.95859C51.0792 9.9862 51.1437 10.0278 51.198 10.0809C51.2524 10.134 51.2955 10.1974 51.3248 10.2675C51.3541 10.3376 51.3689 10.4129 51.3685 10.4889C51.3681 10.5649 51.3523 10.64 51.3222 10.7098C51.2921 10.7795 51.2482 10.8425 51.1933 10.8949C51.1383 10.9474 51.0733 10.9882 51.0022 11.015L50.9095 11.0382Z" fill="url(#paint27_linear_45663_47296)"/>
<path d="M25.3437 3.37885C25.9304 4.31557 26.4361 5.3006 26.8553 6.32323C27.2826 7.32093 27.6556 8.34096 27.9728 9.37889C28.6055 11.4386 29.0799 13.5437 29.3917 15.6757L29.5957 17.2754C29.6699 17.8086 29.6884 18.3465 29.7395 18.8797C29.8461 19.9508 29.86 21.0219 29.8971 22.0977C29.9249 22.6309 29.8971 23.1688 29.8971 23.702L29.8646 25.3064C29.8136 26.3775 29.7302 27.4439 29.6606 28.5104C29.6606 27.4439 29.7209 26.3728 29.7255 25.3064L29.6838 23.7067C29.6838 23.1734 29.6838 22.6402 29.6143 22.107C29.5308 21.0451 29.4705 19.9787 29.3175 18.9261C29.2433 18.3975 29.2016 17.8643 29.1042 17.3403L28.8306 15.7731C28.4325 13.6924 27.8776 11.6448 27.1707 9.64783C26.8043 8.65555 26.4149 7.67719 25.9558 6.73128C25.5193 5.79494 25.0076 4.89553 24.4257 4.04192L24.4025 4.00946C24.3158 3.88648 24.2815 3.73411 24.3071 3.58584C24.3328 3.43758 24.4163 3.30558 24.5393 3.21888C24.6622 3.13218 24.8146 3.09789 24.9629 3.12354C25.1111 3.1492 25.2431 3.23269 25.3298 3.35567L25.3437 3.37885Z" fill="url(#paint28_linear_45663_47296)"/>
<path d="M29.5723 57.1187C29.7438 55.3011 29.9015 53.4834 30.0359 51.6612C30.1704 49.8389 30.2446 48.0166 30.3049 46.1944C30.3652 44.3721 30.3883 42.5405 30.3698 40.7136C30.3512 38.8867 30.3002 37.0645 30.1565 35.2422C30.3327 37.0598 30.4115 38.8867 30.4625 40.7136C30.5135 42.5405 30.5182 44.3674 30.495 46.199C30.4718 48.0305 30.4115 49.8528 30.3188 51.6797C30.2261 53.5066 30.1009 55.3289 29.9618 57.1512C29.96 57.1761 29.9533 57.2005 29.9421 57.2229C29.9309 57.2453 29.9153 57.2653 29.8964 57.2817C29.8774 57.298 29.8554 57.3105 29.8316 57.3183C29.8078 57.3262 29.7827 57.3292 29.7577 57.3273C29.7081 57.3226 29.6623 57.2986 29.6302 57.2604C29.5981 57.2223 29.5823 57.173 29.5862 57.1233L29.5723 57.1187Z" fill="url(#paint29_linear_45663_47296)"/>
<path d="M21.5085 59.6831C22.2225 57.6893 22.9273 55.6862 23.5904 53.6552C24.2535 51.6243 24.898 49.6166 25.5101 47.581C26.1221 45.5454 26.6924 43.5006 27.2303 41.4419C27.7682 39.3831 28.269 37.3151 28.6816 35.2285C28.4544 37.3475 28.1345 39.4573 27.7821 41.5624C27.4297 43.6675 27.0309 45.7634 26.609 47.8592C26.187 49.9551 25.7187 52.0323 25.2179 54.1189C24.7172 56.2055 24.2025 58.292 23.66 60.3462C23.5837 60.637 23.3951 60.8856 23.1355 61.0374C22.8759 61.1891 22.5667 61.2315 22.2759 61.1553C21.985 61.079 21.7364 60.8904 21.5847 60.6308C21.4329 60.3712 21.3905 60.062 21.4667 59.7712L21.4946 59.6785L21.5085 59.6831Z" fill="url(#paint30_linear_45663_47296)"/>
<defs>
<linearGradient id="paint0_linear_45663_47296" x1="125.494" y1="32.3135" x2="125.523" y2="39.6064" gradientUnits="userSpaceOnUse">
<stop stop-color="#FE9B25"/>
<stop offset="1" stop-color="#F37920"/>
</linearGradient>
<linearGradient id="paint1_linear_45663_47296" x1="122.425" y1="39.9482" x2="122.605" y2="52.749" gradientUnits="userSpaceOnUse">
<stop stop-color="#FE9B25"/>
<stop offset="1" stop-color="#F37920"/>
</linearGradient>
<linearGradient id="paint2_linear_45663_47296" x1="120.229" y1="25.6191" x2="120.43" y2="38.1183" gradientUnits="userSpaceOnUse">
<stop stop-color="#FE9B25"/>
<stop offset="1" stop-color="#F37920"/>
</linearGradient>
<linearGradient id="paint3_linear_45663_47296" x1="119.55" y1="41.7344" x2="119.944" y2="56.1169" gradientUnits="userSpaceOnUse">
<stop stop-color="#FE9B25"/>
<stop offset="1" stop-color="#F37920"/>
</linearGradient>
<linearGradient id="paint4_linear_45663_47296" x1="115.676" y1="19" x2="117.626" y2="38.1319" gradientUnits="userSpaceOnUse">
<stop stop-color="#FE9B25"/>
<stop offset="1" stop-color="#F37920"/>
</linearGradient>
<linearGradient id="paint5_linear_45663_47296" x1="107.918" y1="22.6191" x2="108.188" y2="39.091" gradientUnits="userSpaceOnUse">
<stop stop-color="#FE9B25"/>
<stop offset="1" stop-color="#F37920"/>
</linearGradient>
<linearGradient id="paint6_linear_45663_47296" x1="102.647" y1="33.9443" x2="102.672" y2="40.072" gradientUnits="userSpaceOnUse">
<stop stop-color="#FE9B25"/>
<stop offset="1" stop-color="#F37920"/>
</linearGradient>
<linearGradient id="paint7_linear_45663_47296" x1="106.233" y1="40.0479" x2="106.332" y2="50.839" gradientUnits="userSpaceOnUse">
<stop stop-color="#FE9B25"/>
<stop offset="1" stop-color="#F37920"/>
</linearGradient>
<linearGradient id="paint8_linear_45663_47296" x1="109.624" y1="44.2717" x2="113.473" y2="51.5246" gradientUnits="userSpaceOnUse">
<stop stop-color="#FE9B25"/>
<stop offset="1" stop-color="#F37920"/>
</linearGradient>
<linearGradient id="paint9_linear_45663_47296" x1="19.6265" y1="34.4775" x2="20.1089" y2="56.9372" gradientUnits="userSpaceOnUse">
<stop stop-color="#FE9B25"/>
<stop offset="1" stop-color="#F37920"/>
</linearGradient>
<linearGradient id="paint10_linear_45663_47296" x1="9.35637" y1="30.9961" x2="9.36701" y2="35.6558" gradientUnits="userSpaceOnUse">
<stop stop-color="#FE9B25"/>
<stop offset="1" stop-color="#F37920"/>
</linearGradient>
<linearGradient id="paint11_linear_45663_47296" x1="13.782" y1="13.6162" x2="13.9181" y2="28.782" gradientUnits="userSpaceOnUse">
<stop stop-color="#FE9B25"/>
<stop offset="1" stop-color="#F37920"/>
</linearGradient>
<linearGradient id="paint12_linear_45663_47296" x1="10.1301" y1="27.7363" x2="10.1328" y2="29.6474" gradientUnits="userSpaceOnUse">
<stop stop-color="#FE9B25"/>
<stop offset="1" stop-color="#F37920"/>
</linearGradient>
<linearGradient id="paint13_linear_45663_47296" x1="33.5358" y1="37.8301" x2="34.3892" y2="53.8233" gradientUnits="userSpaceOnUse">
<stop stop-color="#FE9B25"/>
<stop offset="1" stop-color="#F37920"/>
</linearGradient>
<linearGradient id="paint14_linear_45663_47296" x1="45.1357" y1="32.1318" x2="45.1477" y2="36.0574" gradientUnits="userSpaceOnUse">
<stop stop-color="#FE9B25"/>
<stop offset="1" stop-color="#F37920"/>
</linearGradient>
<linearGradient id="paint15_linear_45663_47296" x1="40.7029" y1="17.375" x2="40.78" y2="26.6267" gradientUnits="userSpaceOnUse">
<stop stop-color="#FE9B25"/>
<stop offset="1" stop-color="#F37920"/>
</linearGradient>
<linearGradient id="paint16_linear_45663_47296" x1="31.8333" y1="5.91894" x2="34.0891" y2="22.3061" gradientUnits="userSpaceOnUse">
<stop stop-color="#FE9B25"/>
<stop offset="1" stop-color="#F37920"/>
</linearGradient>
<linearGradient id="paint17_linear_45663_47296" x1="15.7248" y1="37.3711" x2="15.9156" y2="50.3415" gradientUnits="userSpaceOnUse">
<stop stop-color="#FE9B25"/>
<stop offset="1" stop-color="#F37920"/>
</linearGradient>
<linearGradient id="paint18_linear_45663_47296" x1="17.1137" y1="10.6006" x2="17.2564" y2="22.4113" gradientUnits="userSpaceOnUse">
<stop stop-color="#FE9B25"/>
<stop offset="1" stop-color="#F37920"/>
</linearGradient>
<linearGradient id="paint19_linear_45663_47296" x1="37.4464" y1="1.44922" x2="37.9896" y2="28.0444" gradientUnits="userSpaceOnUse">
<stop stop-color="#FE9B25"/>
<stop offset="1" stop-color="#F37920"/>
</linearGradient>
<linearGradient id="paint20_linear_45663_47296" x1="44.5677" y1="19.5088" x2="44.6094" y2="29.3302" gradientUnits="userSpaceOnUse">
<stop stop-color="#FE9B25"/>
<stop offset="1" stop-color="#F37920"/>
</linearGradient>
<linearGradient id="paint21_linear_45663_47296" x1="16.327" y1="-1.59634e-06" x2="16.7736" y2="25.5393" gradientUnits="userSpaceOnUse">
<stop stop-color="#FE9B25"/>
<stop offset="1" stop-color="#F37920"/>
</linearGradient>
<linearGradient id="paint22_linear_45663_47296" x1="9.93619" y1="33.4668" x2="10.0648" y2="49.9587" gradientUnits="userSpaceOnUse">
<stop stop-color="#FE9B25"/>
<stop offset="1" stop-color="#F37920"/>
</linearGradient>
<linearGradient id="paint23_linear_45663_47296" x1="43.8205" y1="32.4883" x2="43.9231" y2="47.568" gradientUnits="userSpaceOnUse">
<stop stop-color="#FE9B25"/>
<stop offset="1" stop-color="#F37920"/>
</linearGradient>
<linearGradient id="paint24_linear_45663_47296" x1="36.3806" y1="34.6494" x2="37.1322" y2="62.9804" gradientUnits="userSpaceOnUse">
<stop stop-color="#FE9B25"/>
<stop offset="1" stop-color="#F37920"/>
</linearGradient>
<linearGradient id="paint25_linear_45663_47296" x1="39.2369" y1="33.5781" x2="39.4905" y2="52.5861" gradientUnits="userSpaceOnUse">
<stop stop-color="#FE9B25"/>
<stop offset="1" stop-color="#F37920"/>
</linearGradient>
<linearGradient id="paint26_linear_45663_47296" x1="44.6418" y1="28.8945" x2="44.6455" y2="31.6589" gradientUnits="userSpaceOnUse">
<stop stop-color="#FE9B25"/>
<stop offset="1" stop-color="#F37920"/>
</linearGradient>
<linearGradient id="paint27_linear_45663_47296" x1="39.5318" y1="9.91992" x2="39.7575" y2="28.2194" gradientUnits="userSpaceOnUse">
<stop stop-color="#FE9B25"/>
<stop offset="1" stop-color="#F37920"/>
</linearGradient>
<linearGradient id="paint28_linear_45663_47296" x1="26.3466" y1="3.11523" x2="27.7853" y2="28.4286" gradientUnits="userSpaceOnUse">
<stop stop-color="#FE9B25"/>
<stop offset="1" stop-color="#F37920"/>
</linearGradient>
<linearGradient id="paint29_linear_45663_47296" x1="29.9139" y1="35.2422" x2="35.9291" y2="55.5458" gradientUnits="userSpaceOnUse">
<stop stop-color="#FE9B25"/>
<stop offset="1" stop-color="#F37920"/>
</linearGradient>
<linearGradient id="paint30_linear_45663_47296" x1="24.0765" y1="35.2285" x2="25.2414" y2="61.14" gradientUnits="userSpaceOnUse">
<stop stop-color="#FE9B25"/>
<stop offset="1" stop-color="#F37920"/>
</linearGradient>
</defs>
</svg>
