<svg width="69" height="64" viewBox="0 0 69 64" fill="none" xmlns="http://www.w3.org/2000/svg">
<path d="M35.1575 28.9455C34.7905 28.2566 34.5054 27.5272 34.308 26.7721C34.1155 26.046 33.9759 25.3069 33.8904 24.5607C33.8 23.8161 33.7667 23.0657 33.7908 22.3161C33.8061 21.5369 33.916 20.7624 34.1182 20.0098C34.4887 20.6931 34.7725 21.42 34.9629 22.1737C35.3462 23.6334 35.5203 25.1401 35.4802 26.6487C35.4647 27.4244 35.3564 28.1955 35.1575 28.9455Z" fill="url(#paint0_linear_45663_47331)"/>
<path d="M38.7734 29.8182C38.841 29.1155 39.0006 28.4247 39.248 27.7634C39.696 26.4949 40.3467 25.3074 41.1746 24.2471C41.6028 23.6876 42.1039 23.1881 42.6647 22.7617C42.6084 23.4608 42.4567 24.149 42.2139 24.807C41.9897 25.4447 41.7119 26.0622 41.3834 26.653C41.0602 27.2471 40.6888 27.8137 40.273 28.3471C39.8394 28.9008 39.3353 29.3953 38.7734 29.8182Z" fill="url(#paint1_linear_45663_47331)"/>
<path d="M22.1836 35.7556C22.8991 35.2851 23.6627 34.8922 24.4614 34.5835C25.2353 34.2814 26.0279 34.0294 26.8341 33.829C27.6383 33.6286 28.4547 33.4811 29.2781 33.3876C30.1273 33.2869 30.9849 33.279 31.8359 33.3639C31.1268 33.8384 30.3658 34.2301 29.5675 34.5313C28.7948 34.838 28.0021 35.0917 27.1948 35.2906C26.3858 35.4906 25.5647 35.638 24.7367 35.7319C23.8892 35.8355 23.0328 35.8434 22.1836 35.7556Z" fill="url(#paint2_linear_45663_47331)"/>
<path d="M39.6699 32.8412C40.2976 32.4206 40.9751 32.0795 41.6867 31.8257C42.369 31.5774 43.0684 31.3792 43.7795 31.2325C44.4895 31.0857 45.2098 30.9937 45.9339 30.9573C46.6867 30.9114 47.4423 30.9593 48.1833 31.0996C47.5598 31.5204 46.8853 31.8601 46.176 32.1104C45.4921 32.3637 44.7891 32.562 44.0737 32.7036C43.359 32.852 42.634 32.9456 41.905 32.9836C41.157 33.0298 40.4061 32.982 39.6699 32.8412Z" fill="url(#paint3_linear_45663_47331)"/>
<path d="M31.8344 43.6944C31.8062 42.8983 31.8731 42.1018 32.0337 41.3216C32.1794 40.5772 32.3792 39.8445 32.6316 39.1292C32.8802 38.4141 33.1799 37.7179 33.5285 37.046C33.8882 36.3459 34.3278 35.6898 34.8383 35.0908C34.8721 35.8739 34.8083 36.6582 34.6485 37.4256C34.5012 38.1748 34.2998 38.9122 34.0458 39.6322C33.7929 40.3517 33.4901 41.0525 33.1394 41.7297C32.7857 42.4351 32.3475 43.0948 31.8344 43.6944Z" fill="url(#paint4_linear_45663_47331)"/>
<path d="M43.5097 42.6785C42.8513 42.2282 42.2463 41.7044 41.7064 41.1173C41.1819 40.5545 40.6982 39.9551 40.259 39.3235C39.8178 38.6933 39.4229 38.032 39.0774 37.3446C38.7108 36.6372 38.4304 35.8884 38.2422 35.1143C38.9023 35.5569 39.5062 36.0779 40.0407 36.666C40.5681 37.2322 41.0549 37.8347 41.4976 38.4693C41.9366 39.1051 42.333 39.7693 42.684 40.4577C43.0475 41.1621 43.3247 41.9078 43.5097 42.6785Z" fill="url(#paint5_linear_45663_47331)"/>
<path d="M31.4183 29.8088C30.8532 29.5726 30.3269 29.2526 29.857 28.8597C29.4112 28.4859 29.0013 28.0713 28.6327 27.6211C28.2639 27.1786 27.9382 26.7019 27.6599 26.1975C27.358 25.6625 27.1388 25.0849 27.0098 24.4844C27.5738 24.7198 28.0987 25.0398 28.5663 25.4335C29.0131 25.806 29.4246 26.219 29.7954 26.6673C30.1653 27.11 30.4926 27.5867 30.7729 28.0909C31.0747 28.6272 31.2923 29.2065 31.4183 29.8088Z" fill="url(#paint6_linear_45663_47331)"/>
<path d="M33.3382 34.5596C32.2705 35.3426 31.2502 36.1778 30.2727 37.0557C29.2945 37.9318 28.3677 38.8634 27.4966 39.846C26.6244 40.8242 25.831 41.8699 25.1238 42.9733C24.4276 44.0907 23.8487 45.277 23.3965 46.5134C23.7188 45.2231 24.2153 43.9826 24.8723 42.8262C25.5529 41.6805 26.336 40.5988 27.2118 39.5945C28.1038 38.61 29.0631 37.6888 30.0829 36.8374C31.1014 35.9871 32.1904 35.2251 33.3382 34.5596Z" fill="url(#paint7_linear_45663_47331)"/>
<path d="M51.0729 41.858C50.1713 40.8899 49.2222 39.9724 48.2256 39.1056C47.2431 38.2344 46.2117 37.42 45.1363 36.6664C44.0614 35.9161 42.9302 35.2497 41.7528 34.6733C40.5613 34.1155 39.3164 33.6799 38.0371 33.373C39.357 33.5412 40.6473 33.8909 41.8715 34.4123C43.0867 34.9557 44.2508 35.6069 45.3499 36.358C46.4311 37.1302 47.457 37.9769 48.4202 38.892C49.3872 39.8034 50.2747 40.7956 51.0729 41.858Z" fill="url(#paint8_linear_45663_47331)"/>
<path d="M36.3201 34.2363C36.3865 35.5366 36.4719 36.8321 36.5858 38.1229C36.6997 39.4136 36.8231 40.7091 36.9987 41.9904C37.1743 43.2717 37.3688 44.5577 37.5966 45.8295C37.8244 47.1013 38.1329 48.3683 38.4508 49.6259C37.9849 48.4078 37.6059 47.1582 37.3166 45.8865C37.0256 44.621 36.7962 43.3366 36.6285 42.0331C36.4814 40.7376 36.3533 39.4421 36.2964 38.1371C36.238 36.8373 36.2459 35.5353 36.3201 34.2363Z" fill="url(#paint9_linear_45663_47331)"/>
<path d="M32.3859 31.1045C31.1094 30.8483 29.8281 30.6632 28.5373 30.5351C27.2526 30.4023 25.9612 30.3453 24.6698 30.3642C23.3796 30.3791 22.0927 30.4965 20.8212 30.7154C19.5492 30.9494 18.3042 31.3119 17.1055 31.7974C18.2576 31.1784 19.4884 30.7187 20.7642 30.4307C22.0483 30.1651 23.354 30.0174 24.665 29.9894C25.9729 29.986 27.2794 30.0732 28.5753 30.2503C29.8673 30.4273 31.142 30.7131 32.3859 31.1045Z" fill="url(#paint10_linear_45663_47331)"/>
<path d="M53.2281 26.4446C51.9326 26.5632 50.6513 26.7483 49.3796 26.9903C48.1096 27.2343 46.8547 27.5512 45.6211 27.9394C44.3892 28.3174 43.1895 28.7935 42.0336 29.363C40.8785 29.948 39.7862 30.6492 38.7734 31.4558C39.7003 30.5251 40.751 29.7267 41.896 29.0831C43.0513 28.466 44.2599 27.9546 45.5072 27.555C46.7606 27.1797 48.0387 26.8927 49.3321 26.6961C50.6212 26.5011 51.9247 26.4169 53.2281 26.4446Z" fill="url(#paint11_linear_45663_47331)"/>
<path d="M44.562 15.7197C43.6793 16.6688 42.8536 17.6701 42.0706 18.7046C41.2887 19.7324 40.5677 20.8051 39.9114 21.9173C39.2533 23.0262 38.6822 24.1844 38.203 25.3815C37.7425 26.5916 37.4023 27.8441 37.1875 29.1209C37.2601 27.8133 37.5108 26.5217 37.9325 25.2819C38.3747 24.0489 38.9291 22.8591 39.5887 21.7275C40.2643 20.6072 41.0192 19.5368 41.8476 18.5243C42.6699 17.513 43.5781 16.5747 44.562 15.7197Z" fill="url(#paint12_linear_45663_47331)"/>
<path d="M32.7741 28.6703C32.2996 27.4602 31.7681 26.2976 31.1844 25.1255C30.6052 23.9692 29.9571 22.8489 29.2435 21.7704C28.5354 20.6915 27.742 19.6711 26.8708 18.7191C25.9859 17.7743 25.0099 16.9191 23.957 16.166C25.101 16.8111 26.1516 17.6094 27.0796 18.5388C27.9945 19.4758 28.8206 20.4957 29.5472 21.5853C30.2592 22.6833 30.8935 23.8298 31.4454 25.0163C31.9902 26.1948 32.4347 27.4171 32.7741 28.6703Z" fill="url(#paint13_linear_45663_47331)"/>
<path d="M0.751948 27.3987C2.93062 26.8051 5.15172 26.3799 7.39561 26.1269C9.61478 25.8727 11.849 25.7744 14.082 25.8327C16.3138 25.8794 18.537 26.1239 20.7256 26.5635C22.894 26.9961 25.0144 27.6414 27.0561 28.4902C24.9678 27.8231 22.8187 27.3638 20.6402 27.1187C18.4756 26.8753 16.2939 26.8214 14.1199 26.9574C11.9562 27.0844 9.80424 27.365 7.68033 27.7973C5.5834 28.217 3.52116 28.7944 1.51122 29.5247H1.46851C1.19287 29.6114 0.89446 29.5892 0.634687 29.4627C0.374913 29.3361 0.173541 29.1147 0.072009 28.8442C-0.0295228 28.5736 -0.0234899 28.2745 0.0888661 28.0082C0.201222 27.742 0.411353 27.529 0.676018 27.413L0.751948 27.3987Z" fill="url(#paint14_linear_45663_47331)"/>
<path d="M67.5883 23.6067C65.468 23.2668 63.3246 23.0907 61.1772 23.0799C59.0034 23.0587 56.8308 23.1919 54.6759 23.4786C52.5102 23.7543 50.3728 24.2195 48.2885 24.869C46.1892 25.5219 44.1594 26.3803 42.2285 27.4315C44.078 26.2125 46.0425 25.1778 48.0939 24.3422C50.16 23.4998 52.2957 22.8392 54.4766 22.3681C56.6652 21.8853 58.8853 21.5586 61.1202 21.3905C63.3804 21.2149 65.6508 21.2149 67.911 21.3905C68.0635 21.3959 68.2133 21.4321 68.3514 21.497C68.4895 21.5618 68.6131 21.654 68.7146 21.7679C68.8161 21.8818 68.8935 22.0151 68.942 22.1598C68.9906 22.3044 69.0093 22.4574 68.9972 22.6095C68.985 22.7616 68.9421 22.9097 68.8711 23.0447C68.8001 23.1798 68.7025 23.2991 68.5841 23.3954C68.4658 23.4917 68.3291 23.563 68.1824 23.605C68.0357 23.647 67.8821 23.6589 67.7307 23.6399H67.6358L67.5883 23.6067Z" fill="url(#paint15_linear_45663_47331)"/>
<path d="M63.0601 51.2352C61.9669 49.3881 60.7342 47.6271 59.3728 45.9677C58.002 44.2822 56.5129 42.6964 54.9169 41.2223C53.3224 39.7305 51.5995 38.3823 49.768 37.1933C47.9205 35.9912 45.959 34.9739 43.9121 34.1562C46.032 34.8032 48.0838 35.6551 50.0385 36.6998C52.0057 37.7529 53.8763 38.9772 55.6287 40.3586C57.3974 41.7326 59.0657 43.2313 60.6209 44.843C62.2034 46.4674 63.6567 48.2127 64.9678 50.0631C65.0525 50.1843 65.1126 50.321 65.1445 50.4654C65.1764 50.6098 65.1796 50.7591 65.1538 50.9048C65.128 51.0504 65.0738 51.1895 64.9942 51.3142C64.9147 51.4389 64.8114 51.5467 64.6902 51.6314C64.5689 51.7162 64.4322 51.7762 64.2878 51.8082C64.1434 51.8401 63.9941 51.8432 63.8485 51.8175C63.7028 51.7917 63.5637 51.7375 63.439 51.6579C63.3143 51.5784 63.2065 51.475 63.1218 51.3538L63.0696 51.2779L63.0601 51.2352Z" fill="url(#paint16_linear_45663_47331)"/>
<path d="M44.2253 62.5671C44.0216 60.4463 43.7048 58.3379 43.2763 56.2508C42.8634 54.1344 42.3651 52.0321 41.8146 49.9441C41.2642 47.8561 40.6378 45.7729 39.9449 43.7181C39.2521 41.6633 38.5213 39.618 37.7383 37.5869C38.6874 39.542 39.6365 41.5114 40.4717 43.5188C41.3069 45.5261 42.1326 47.5524 42.8919 49.6025C43.6511 51.6525 44.3155 53.7452 44.9182 55.857C45.5454 57.9867 46.0555 60.1491 46.4462 62.3345C46.4776 62.4835 46.4785 62.6372 46.449 62.7865C46.4194 62.9358 46.36 63.0775 46.2743 63.2033C46.1886 63.329 46.0784 63.4362 45.9503 63.5183C45.8221 63.6004 45.6787 63.6557 45.5286 63.681C45.3786 63.7063 45.2249 63.7009 45.077 63.6654C44.929 63.6298 44.7898 63.5647 44.6676 63.4739C44.5454 63.3832 44.4429 63.2687 44.366 63.1373C44.2892 63.006 44.2398 62.8604 44.2206 62.7094V62.6145L44.2253 62.5671Z" fill="url(#paint17_linear_45663_47331)"/>
<path d="M50.5852 3.50075C48.9049 4.83828 47.3295 6.30259 45.8729 7.88082C44.3961 9.47473 43.0325 11.1698 41.7918 12.9537C40.5366 14.7413 39.441 16.6357 38.5175 18.6151C37.5813 20.6062 36.8453 22.6855 36.3203 24.8222C36.6642 22.6306 37.2237 20.4784 37.9907 18.3968C38.761 16.3021 39.7138 14.2791 40.838 12.3511C41.9562 10.4104 43.2089 8.55035 44.5869 6.78462C45.9786 4.99437 47.5065 3.31423 49.1568 1.75917C49.2649 1.65821 49.3919 1.57954 49.5304 1.52764C49.6689 1.47575 49.8163 1.45165 49.9642 1.45672C50.112 1.46178 50.2574 1.49592 50.3921 1.55718C50.5267 1.61844 50.648 1.70562 50.7489 1.81374C50.8499 1.92186 50.9285 2.04881 50.9804 2.18733C51.0323 2.32586 51.0564 2.47325 51.0514 2.62109C51.0463 2.76893 51.0122 2.91433 50.9509 3.04898C50.8896 3.18363 50.8025 3.30489 50.6943 3.40585L50.6232 3.46754L50.5852 3.50075Z" fill="url(#paint18_linear_45663_47331)"/>
<path d="M17.9501 0.287766C19.6927 1.73001 21.3205 3.30551 22.8189 5.00002C24.3047 6.66863 25.6731 8.43818 26.9143 10.296C28.1514 12.1454 29.2263 14.0983 30.127 16.1329C31.0211 18.1489 31.7126 20.2488 32.1912 22.4017C31.5369 20.309 30.6753 18.2869 29.6192 16.3654C28.575 14.455 27.365 12.64 26.0031 10.9414C24.6519 9.25215 23.1835 7.66007 21.6088 6.1769C20.0567 4.7018 18.3959 3.34552 16.6403 2.11952L16.5976 2.09105C16.4674 2.0108 16.3547 1.90492 16.2666 1.77983C16.1785 1.65474 16.1167 1.51305 16.085 1.36336C16.0533 1.21367 16.0524 1.0591 16.0823 0.909038C16.1121 0.758972 16.1722 0.616537 16.2587 0.490377C16.3453 0.364217 16.4566 0.256963 16.5859 0.175125C16.7152 0.0932874 16.8597 0.0385749 17.0108 0.0143022C17.1619 -0.00997054 17.3163 -0.00329477 17.4647 0.0339253C17.6131 0.0711455 17.7524 0.138133 17.8742 0.230823L17.9501 0.287766Z" fill="url(#paint19_linear_45663_47331)"/>
<path d="M8.40724 14.9608C10.0514 15.1011 11.6823 15.3676 13.2856 15.758C14.8801 16.1393 16.4454 16.6341 17.9694 17.2386C19.4957 17.8314 20.9662 18.5587 22.3637 19.4121C23.7589 20.2623 25.067 21.2478 26.2692 22.3542C25.0318 21.2962 23.6917 20.3646 22.2688 19.5734C20.854 18.7835 19.3724 18.1198 17.8412 17.5898C16.3139 17.0523 14.7503 16.6241 13.1622 16.3085C11.5853 15.9877 9.98614 15.7878 8.37876 15.7106C8.28584 15.6968 8.20131 15.6491 8.14152 15.5767C8.08173 15.5042 8.05092 15.4122 8.05506 15.3183C8.05919 15.2245 8.09797 15.1355 8.16389 15.0686C8.22982 15.0017 8.31821 14.9616 8.41199 14.9561L8.40724 14.9608Z" fill="url(#paint20_linear_45663_47331)"/>
<path d="M4.83346 34.3558C6.20538 33.4381 7.64593 32.6274 9.14235 31.9309C10.6266 31.2346 12.1585 30.6447 13.7265 30.1656C15.2899 29.6759 16.8939 29.3266 18.5194 29.1216C20.1384 28.913 21.7741 28.8653 23.4025 28.9792C21.7759 28.9289 20.1483 29.0385 18.5431 29.3066C16.9446 29.5732 15.3725 29.9797 13.8451 30.5215C12.3164 31.0471 10.8273 31.6815 9.38911 32.4197C7.95616 33.1521 6.58218 33.9946 5.27953 34.9395C5.19898 34.9987 5.09824 35.0234 4.99945 35.0083C4.90067 34.9931 4.81194 34.9394 4.75279 34.8588C4.69363 34.7783 4.6689 34.6775 4.68403 34.5788C4.69916 34.48 4.75291 34.3913 4.83346 34.3321V34.3558Z" fill="url(#paint21_linear_45663_47331)"/>
<path d="M63.1984 18.5672C61.5935 18.5186 59.9871 18.5836 58.3913 18.7617C56.7852 18.9396 55.1922 19.2202 53.6221 19.6017C52.0492 19.9807 50.5098 20.487 49.019 21.1155C47.5281 21.7451 46.0984 22.5108 44.748 23.4028C46.0714 22.4539 47.4806 21.6309 48.9573 20.9446C50.4368 20.2538 51.9698 19.6841 53.5414 19.241C55.1141 18.7892 56.7153 18.4436 58.3343 18.2065C59.9599 17.9574 61.6014 17.8273 63.2459 17.8174C63.3453 17.8174 63.4407 17.8569 63.511 17.9272C63.5813 17.9975 63.6208 18.0929 63.6208 18.1923C63.6208 18.2917 63.5813 18.3871 63.511 18.4574C63.4407 18.5277 63.3453 18.5672 63.2459 18.5672H63.2127H63.1984Z" fill="url(#paint22_linear_45663_47331)"/>
<path d="M41.4482 1.04641C40.2138 3.99391 39.177 7.0203 38.3446 10.1055C37.9223 11.6525 37.5474 13.2091 37.2342 14.7845C36.921 16.36 36.6647 17.9403 36.4512 19.53C36.603 17.9308 36.7786 16.3316 37.0491 14.7513C37.3196 13.1711 37.6138 11.5814 37.9982 10.0059C38.3826 8.43037 38.7717 6.87859 39.232 5.33631C39.6923 3.79403 40.1811 2.266 40.7743 0.7427C40.8094 0.651822 40.8789 0.578436 40.9677 0.53846C41.0565 0.498484 41.1576 0.495142 41.2489 0.529155C41.3398 0.564324 41.4135 0.633551 41.4542 0.72215C41.495 0.81075 41.4996 0.911748 41.4671 1.0037L41.4482 1.04641Z" fill="url(#paint23_linear_45663_47331)"/>
<path d="M31.7782 59.5917C32.7627 56.55 33.5427 53.4459 34.113 50.3001C34.4072 48.7183 34.6476 47.1365 34.8343 45.5546C35.0336 43.9649 35.1332 42.3609 35.2187 40.7617C35.2187 42.3657 35.157 43.9744 35.0194 45.5736C34.8817 47.1729 34.7157 48.7768 34.4831 50.3665C34.2506 51.9563 33.9754 53.546 33.6479 55.112C33.3205 56.678 32.9456 58.2535 32.49 59.8148C32.4763 59.8621 32.4534 59.9064 32.4226 59.9449C32.3918 59.9834 32.3537 60.0154 32.3106 60.0392C32.2674 60.063 32.2199 60.0781 32.1709 60.0835C32.1219 60.089 32.0723 60.0848 32.025 60.071C31.9776 60.0573 31.9334 60.0344 31.8949 60.0036C31.8564 59.9728 31.8243 59.9348 31.8005 59.8916C31.7767 59.8484 31.7617 59.8009 31.7562 59.7519C31.7508 59.7029 31.755 59.6533 31.7687 59.606V59.5823L31.7782 59.5917Z" fill="url(#paint24_linear_45663_47331)"/>
<path d="M63.9952 42.0669C62.8247 40.9673 61.58 39.9493 60.27 39.0203C58.9521 38.0852 57.5746 37.2371 56.1462 36.4815C54.7211 35.717 53.2355 35.071 51.7045 34.5501C50.1612 34.0247 48.5726 33.6434 46.959 33.4111C48.5792 33.58 50.1805 33.8977 51.7424 34.3602C53.3062 34.8284 54.8297 35.422 56.2981 36.135C57.7734 36.8433 59.2002 37.6486 60.569 38.5457C61.9483 39.4404 63.2614 40.4332 64.4982 41.5164C64.5731 41.5825 64.6187 41.6756 64.6249 41.7753C64.6312 41.8749 64.5975 41.973 64.5315 42.0479C64.4654 42.1228 64.3723 42.1683 64.2726 42.1746C64.1729 42.1808 64.0748 42.1472 64 42.0811L63.9952 42.0669Z" fill="url(#paint25_linear_45663_47331)"/>
<path d="M52.4538 53.2188C52.032 51.6677 51.5008 50.1485 50.8641 48.6726C50.2293 47.1888 49.4985 45.7478 48.6764 44.359C47.8566 42.9635 46.925 41.6367 45.8908 40.3918C44.8536 39.1434 43.7035 37.9933 42.4551 36.9561C43.7462 37.9523 44.9439 39.0642 46.0332 40.2779C47.1236 41.493 48.1139 42.7943 48.9943 44.1692C49.8776 45.5395 50.6702 46.9662 51.3671 48.4401C52.0764 49.9233 52.679 51.4552 53.1704 53.0242C53.1857 53.0719 53.1913 53.1221 53.1869 53.172C53.1825 53.2218 53.1682 53.2703 53.1447 53.3145C53.1213 53.3588 53.0892 53.3979 53.0504 53.4295C53.0116 53.4611 52.9669 53.4847 52.9189 53.4988C52.8712 53.5148 52.8208 53.5209 52.7707 53.5168C52.7207 53.5128 52.6719 53.4985 52.6275 53.475C52.5831 53.4514 52.544 53.4191 52.5125 53.38C52.481 53.3408 52.4578 53.2957 52.4443 53.2473V53.2188H52.4538Z" fill="url(#paint26_linear_45663_47331)"/>
<path d="M16.1937 50.9079C16.8598 49.3975 17.642 47.941 18.5332 46.5515C19.4141 45.1687 20.3909 43.8494 21.4564 42.6033C22.5154 41.3544 23.6826 40.2016 24.9443 39.1581C26.2017 38.114 27.5592 37.1968 28.997 36.4199C27.5964 37.2496 26.2804 38.2144 25.0677 39.3004C23.8597 40.3817 22.7482 41.5662 21.7459 42.8406C20.744 44.1113 19.8307 45.4496 19.0125 46.8457C18.1986 48.2335 17.4896 49.6802 16.8913 51.1736C16.8552 51.2637 16.7856 51.3363 16.6971 51.3761C16.6086 51.4159 16.5081 51.4199 16.4167 51.3871C16.3281 51.3492 16.257 51.2794 16.2174 51.1915C16.1779 51.1036 16.1728 51.0041 16.2032 50.9126L16.1937 50.9079Z" fill="url(#paint27_linear_45663_47331)"/>
<path d="M3.86973 44.7053C5.42785 43.0651 7.10952 41.5468 8.89994 40.1639C10.6645 38.7951 12.5229 37.5519 14.4616 36.4434C16.3888 35.33 18.4103 34.3883 20.5026 33.6294C22.5805 32.8737 24.728 32.3253 26.9137 31.9922C24.7818 32.506 22.7058 33.2292 20.7162 34.1514C18.7404 35.065 16.8491 36.1512 15.0643 37.3973C13.2799 38.6286 11.5847 39.9844 9.9914 41.4547C8.41478 42.9027 6.95054 44.4684 5.61132 46.1384L5.58285 46.1764C5.3941 46.4003 5.12575 46.5422 4.83441 46.572C4.54307 46.6019 4.25152 46.5174 4.02128 46.3364C3.79104 46.1554 3.6401 45.8921 3.60032 45.6019C3.56053 45.3118 3.63502 45.0175 3.80805 44.7812C3.82703 44.7338 3.85075 44.7053 3.86973 44.7053Z" fill="url(#paint28_linear_45663_47331)"/>
<path d="M20.7866 61.8557C21.0907 59.6158 21.5666 57.4027 22.2102 55.2358C22.8537 53.0949 23.6466 51.0017 24.5829 48.9718C25.5043 46.9451 26.6015 45.0031 27.8621 43.168C29.1152 41.3449 30.5458 39.6505 32.133 38.1094C30.6938 39.7656 29.4222 41.5602 28.3366 43.467C27.262 45.3614 26.3554 47.3463 25.6269 49.3988C24.8924 51.4377 24.3041 53.5262 23.8664 55.6486C23.4238 57.7436 23.143 59.8695 23.0264 62.0076V62.055C23.0263 62.2077 22.9952 62.3587 22.9351 62.499C22.875 62.6393 22.787 62.7659 22.6766 62.8713C22.5661 62.9766 22.4355 63.0585 22.2925 63.1119C22.1495 63.1654 21.9972 63.1893 21.8447 63.1823C21.6923 63.1752 21.5428 63.1373 21.4054 63.0709C21.268 63.0044 21.1455 62.9108 21.0452 62.7957C20.945 62.6806 20.8691 62.5464 20.8222 62.4011C20.7753 62.2559 20.7583 62.1026 20.7723 61.9506C20.7818 61.9174 20.7818 61.8842 20.7866 61.8557Z" fill="url(#paint29_linear_45663_47331)"/>
<defs>
<linearGradient id="paint0_linear_45663_47331" x1="34.4046" y1="20.0098" x2="34.991" y2="28.9068" gradientUnits="userSpaceOnUse">
<stop stop-color="#FE9B25"/>
<stop offset="1" stop-color="#F37920"/>
</linearGradient>
<linearGradient id="paint1_linear_45663_47331" x1="40.1937" y1="22.7617" x2="40.3543" y2="29.8146" gradientUnits="userSpaceOnUse">
<stop stop-color="#FE9B25"/>
<stop offset="1" stop-color="#F37920"/>
</linearGradient>
<linearGradient id="paint2_linear_45663_47331" x1="25.7065" y1="33.3057" x2="25.7147" y2="35.816" gradientUnits="userSpaceOnUse">
<stop stop-color="#FE9B25"/>
<stop offset="1" stop-color="#F37920"/>
</linearGradient>
<linearGradient id="paint3_linear_45663_47331" x1="42.7772" y1="30.9404" x2="42.7834" y2="33.0006" gradientUnits="userSpaceOnUse">
<stop stop-color="#FE9B25"/>
<stop offset="1" stop-color="#F37920"/>
</linearGradient>
<linearGradient id="paint4_linear_45663_47331" x1="32.93" y1="35.0908" x2="33.2375" y2="43.6834" gradientUnits="userSpaceOnUse">
<stop stop-color="#FE9B25"/>
<stop offset="1" stop-color="#F37920"/>
</linearGradient>
<linearGradient id="paint5_linear_45663_47331" x1="40.1647" y1="35.1143" x2="40.3011" y2="42.6761" gradientUnits="userSpaceOnUse">
<stop stop-color="#FE9B25"/>
<stop offset="1" stop-color="#F37920"/>
</linearGradient>
<linearGradient id="paint6_linear_45663_47331" x1="28.6188" y1="24.4844" x2="28.6995" y2="29.8076" gradientUnits="userSpaceOnUse">
<stop stop-color="#FE9B25"/>
<stop offset="1" stop-color="#F37920"/>
</linearGradient>
<linearGradient id="paint7_linear_45663_47331" x1="27.0251" y1="34.5596" x2="27.2055" y2="46.5107" gradientUnits="userSpaceOnUse">
<stop stop-color="#FE9B25"/>
<stop offset="1" stop-color="#F37920"/>
</linearGradient>
<linearGradient id="paint8_linear_45663_47331" x1="42.795" y1="33.373" x2="42.8643" y2="41.8574" gradientUnits="userSpaceOnUse">
<stop stop-color="#FE9B25"/>
<stop offset="1" stop-color="#F37920"/>
</linearGradient>
<linearGradient id="paint9_linear_45663_47331" x1="37.0582" y1="34.2363" x2="38.4039" y2="49.5073" gradientUnits="userSpaceOnUse">
<stop stop-color="#FE9B25"/>
<stop offset="1" stop-color="#F37920"/>
</linearGradient>
<linearGradient id="paint10_linear_45663_47331" x1="22.6826" y1="29.9893" x2="22.6853" y2="31.7974" gradientUnits="userSpaceOnUse">
<stop stop-color="#FE9B25"/>
<stop offset="1" stop-color="#F37920"/>
</linearGradient>
<linearGradient id="paint11_linear_45663_47331" x1="44.0492" y1="26.4395" x2="44.071" y2="31.4557" gradientUnits="userSpaceOnUse">
<stop stop-color="#FE9B25"/>
<stop offset="1" stop-color="#F37920"/>
</linearGradient>
<linearGradient id="paint12_linear_45663_47331" x1="39.8791" y1="15.7197" x2="40.1847" y2="29.114" gradientUnits="userSpaceOnUse">
<stop stop-color="#FE9B25"/>
<stop offset="1" stop-color="#F37920"/>
</linearGradient>
<linearGradient id="paint13_linear_45663_47331" x1="27.1751" y1="16.166" x2="27.3977" y2="28.6664" gradientUnits="userSpaceOnUse">
<stop stop-color="#FE9B25"/>
<stop offset="1" stop-color="#F37920"/>
</linearGradient>
<linearGradient id="paint14_linear_45663_47331" x1="9.87507" y1="25.8164" x2="9.88164" y2="29.5768" gradientUnits="userSpaceOnUse">
<stop stop-color="#FE9B25"/>
<stop offset="1" stop-color="#F37920"/>
</linearGradient>
<linearGradient id="paint15_linear_45663_47331" x1="52" y1="21.2588" x2="52.0179" y2="27.4315" gradientUnits="userSpaceOnUse">
<stop stop-color="#FE9B25"/>
<stop offset="1" stop-color="#F37920"/>
</linearGradient>
<linearGradient id="paint16_linear_45663_47331" x1="51.6713" y1="34.1562" x2="51.8559" y2="51.8328" gradientUnits="userSpaceOnUse">
<stop stop-color="#FE9B25"/>
<stop offset="1" stop-color="#F37920"/>
</linearGradient>
<linearGradient id="paint17_linear_45663_47331" x1="40.9254" y1="37.5869" x2="41.9043" y2="63.6599" gradientUnits="userSpaceOnUse">
<stop stop-color="#FE9B25"/>
<stop offset="1" stop-color="#F37920"/>
</linearGradient>
<linearGradient id="paint18_linear_45663_47331" x1="41.6972" y1="1.45605" x2="42.1624" y2="24.8129" gradientUnits="userSpaceOnUse">
<stop stop-color="#FE9B25"/>
<stop offset="1" stop-color="#F37920"/>
</linearGradient>
<linearGradient id="paint19_linear_45663_47331" x1="21.948" y1="-1.3998e-06" x2="22.3385" y2="22.3949" gradientUnits="userSpaceOnUse">
<stop stop-color="#FE9B25"/>
<stop offset="1" stop-color="#F37920"/>
</linearGradient>
<linearGradient id="paint20_linear_45663_47331" x1="14.7027" y1="14.9561" x2="14.7404" y2="22.3541" gradientUnits="userSpaceOnUse">
<stop stop-color="#FE9B25"/>
<stop offset="1" stop-color="#F37920"/>
</linearGradient>
<linearGradient id="paint21_linear_45663_47331" x1="11.5132" y1="28.9189" x2="11.5381" y2="35.0125" gradientUnits="userSpaceOnUse">
<stop stop-color="#FE9B25"/>
<stop offset="1" stop-color="#F37920"/>
</linearGradient>
<linearGradient id="paint22_linear_45663_47331" x1="51.6363" y1="17.8174" x2="51.6571" y2="23.4027" gradientUnits="userSpaceOnUse">
<stop stop-color="#FE9B25"/>
<stop offset="1" stop-color="#F37920"/>
</linearGradient>
<linearGradient id="paint23_linear_45663_47331" x1="38.2897" y1="0.505858" x2="39.1899" y2="19.4873" gradientUnits="userSpaceOnUse">
<stop stop-color="#FE9B25"/>
<stop offset="1" stop-color="#F37920"/>
</linearGradient>
<linearGradient id="paint24_linear_45663_47331" x1="33.0185" y1="40.7617" x2="34.3652" y2="59.9915" gradientUnits="userSpaceOnUse">
<stop stop-color="#FE9B25"/>
<stop offset="1" stop-color="#F37920"/>
</linearGradient>
<linearGradient id="paint25_linear_45663_47331" x1="53.4071" y1="33.4111" x2="53.4617" y2="42.175" gradientUnits="userSpaceOnUse">
<stop stop-color="#FE9B25"/>
<stop offset="1" stop-color="#F37920"/>
</linearGradient>
<linearGradient id="paint26_linear_45663_47331" x1="46.3726" y1="36.9561" x2="46.6933" y2="53.5119" gradientUnits="userSpaceOnUse">
<stop stop-color="#FE9B25"/>
<stop offset="1" stop-color="#F37920"/>
</linearGradient>
<linearGradient id="paint27_linear_45663_47331" x1="20.8603" y1="36.4199" x2="21.0804" y2="51.4059" gradientUnits="userSpaceOnUse">
<stop stop-color="#FE9B25"/>
<stop offset="1" stop-color="#F37920"/>
</linearGradient>
<linearGradient id="paint28_linear_45663_47331" x1="12.1027" y1="31.9922" x2="12.2172" y2="46.577" gradientUnits="userSpaceOnUse">
<stop stop-color="#FE9B25"/>
<stop offset="1" stop-color="#F37920"/>
</linearGradient>
<linearGradient id="paint29_linear_45663_47331" x1="24.9158" y1="38.1094" x2="25.6099" y2="63.1642" gradientUnits="userSpaceOnUse">
<stop stop-color="#FE9B25"/>
<stop offset="1" stop-color="#F37920"/>
</linearGradient>
</defs>
</svg>
