<svg width="30" height="60" viewBox="0 0 30 60" fill="none" xmlns="http://www.w3.org/2000/svg">
<path opacity="0.3" d="M8.31596 8.30109C9.18365 7.43362 10.1942 6.75224 11.32 6.27594C12.4866 5.7827 13.7247 5.53253 15 5.53253C16.2753 5.53253 17.5134 5.7827 18.68 6.27594C19.8058 6.75224 20.8166 7.43362 21.684 8.30109C22.0589 8.67599 22.3991 9.07791 22.7028 9.50409V8.49037C22.7028 5.23979 20.0583 2.59529 16.8077 2.59529H9.49493V0L0 5.98274L6.80511 10.2706C7.21779 9.5533 7.72339 8.89366 8.31596 8.30109V8.30109Z" fill="black"/>
<path opacity="0.3" d="M30.0002 23.9881L23.195 19.7002C22.7824 20.4175 22.2768 21.0769 21.6842 21.6697C20.8165 22.5372 19.806 23.2186 18.6801 23.6946C17.5135 24.1881 16.2755 24.4383 15.0002 24.4383C13.7248 24.4383 12.4868 24.1881 11.3202 23.6946C10.1943 23.2186 9.18358 22.5372 8.31612 21.6697C7.94121 21.2948 7.60109 20.8929 7.29736 20.4667V21.4804C7.29736 24.731 9.94186 27.3755 13.1924 27.3755H20.5054V29.9708L30.0002 23.9881Z" fill="black"/>
<path fill-rule="evenodd" clip-rule="evenodd" d="M15 22.4443C19.1421 22.4443 22.5 19.0865 22.5 14.9443C22.5 10.8022 19.1421 7.44434 15 7.44434C10.8579 7.44434 7.5 10.8022 7.5 14.9443C7.5 19.0865 10.8579 22.4443 15 22.4443ZM14.9941 10.4421C15.2557 10.4421 15.4677 10.6542 15.4677 10.9158V11.4915C15.7759 11.5082 16.0895 11.5728 16.4086 11.6851C16.7836 11.8171 17.112 12.012 17.394 12.27L16.4131 13.305C16.2811 13.137 16.1086 13.0035 15.8956 12.9045C15.6826 12.8055 15.4771 12.756 15.2791 12.756C15.1771 12.756 15.0736 12.765 14.9686 12.783C14.8636 12.801 14.7691 12.8355 14.6851 12.8865C14.6011 12.9375 14.5306 13.0035 14.4736 13.0845C14.4166 13.1655 14.3881 13.269 14.3881 13.395C14.3881 13.503 14.4106 13.593 14.4556 13.665C14.5006 13.737 14.5666 13.8 14.6536 13.854C14.7406 13.908 14.8441 13.9575 14.9641 14.0025C15.0841 14.0475 15.2191 14.094 15.3691 14.142C15.5851 14.214 15.8101 14.2935 16.0441 14.3805C16.2781 14.4675 16.4911 14.583 16.6831 14.727C16.875 14.871 17.034 15.0495 17.16 15.2625C17.286 15.4755 17.349 15.741 17.349 16.059C17.349 16.4249 17.2815 16.7414 17.1465 17.0084C17.0115 17.2754 16.83 17.4959 16.6021 17.6699C16.3741 17.8439 16.1131 17.9729 15.8191 18.0569C15.7036 18.0899 15.5866 18.1164 15.4683 18.1365V18.9689C15.4683 19.2305 15.2563 19.4426 14.9947 19.4426C14.7331 19.4426 14.521 19.2305 14.521 18.9689V18.1632C14.2021 18.1307 13.8908 18.0578 13.5871 17.9444C13.1611 17.7854 12.8071 17.5589 12.5251 17.2649L13.5331 16.239C13.6891 16.4309 13.8946 16.5914 14.1496 16.7204C14.4046 16.8494 14.6581 16.9139 14.9101 16.9139C15.0241 16.9139 15.1351 16.9019 15.2431 16.8779C15.3511 16.8539 15.4456 16.8149 15.5266 16.7609C15.6076 16.7069 15.6721 16.6349 15.7201 16.5449C15.7681 16.4549 15.7921 16.3469 15.7921 16.221C15.7921 16.101 15.7621 15.999 15.7021 15.915C15.6421 15.831 15.5566 15.7545 15.4456 15.6855C15.3346 15.6165 15.1966 15.5535 15.0316 15.4965C14.8666 15.4395 14.6791 15.378 14.4691 15.312C14.2651 15.246 14.0656 15.168 13.8706 15.078C13.6756 14.988 13.5016 14.8725 13.3486 14.7315C13.1956 14.5905 13.0726 14.4195 12.9796 14.2185C12.8866 14.0175 12.8401 13.773 12.8401 13.485C12.8401 13.131 12.9121 12.828 13.0561 12.576C13.2001 12.324 13.3891 12.117 13.6231 11.955C13.8571 11.7931 14.1211 11.6746 14.4151 11.5996C14.4502 11.5906 14.4852 11.5822 14.5204 11.5743V10.9158C14.5204 10.6542 14.7325 10.4421 14.9941 10.4421Z" fill="black"/>
<path d="M8.31596 38.3011C9.18365 37.4336 10.1942 36.7522 11.32 36.2759C12.4866 35.7827 13.7247 35.5325 15 35.5325C16.2753 35.5325 17.5134 35.7827 18.68 36.2759C19.8058 36.7522 20.8166 37.4336 21.684 38.3011C22.0589 38.676 22.3991 39.0779 22.7028 39.5041V38.4904C22.7028 35.2398 20.0583 32.5953 16.8077 32.5953H9.49493V30L0 35.9827L6.80511 40.2706C7.21779 39.5533 7.72339 38.8937 8.31596 38.3011V38.3011Z" fill="url(#paint0_linear_26632_153530)"/>
<path d="M30.0002 53.9881L23.195 49.7002C22.7824 50.4175 22.2768 51.0769 21.6842 51.6697C20.8165 52.5372 19.806 53.2186 18.6801 53.6946C17.5135 54.1881 16.2755 54.4383 15.0002 54.4383C13.7248 54.4383 12.4868 54.1881 11.3202 53.6946C10.1943 53.2186 9.18358 52.5372 8.31612 51.6697C7.94121 51.2948 7.60109 50.8929 7.29736 50.4667V51.4804C7.29736 54.731 9.94186 57.3755 13.1924 57.3755H20.5054V59.9708L30.0002 53.9881Z" fill="url(#paint1_linear_26632_153530)"/>
<path opacity="0.3" d="M22.5 44.9443C22.5 49.0865 19.1421 52.4443 15 52.4443C10.8579 52.4443 7.5 49.0865 7.5 44.9443C7.5 40.8022 10.8579 37.4443 15 37.4443C19.1421 37.4443 22.5 40.8022 22.5 44.9443Z" fill="url(#paint2_linear_26632_153530)"/>
<path fill-rule="evenodd" clip-rule="evenodd" d="M15.468 40.9161C15.468 40.6545 15.2559 40.4424 14.9943 40.4424C14.7327 40.4424 14.5206 40.6545 14.5206 40.9161V41.5746C14.4855 41.5825 14.4504 41.5909 14.4153 41.5998C14.1214 41.6748 13.8574 41.7933 13.6234 41.9553C13.3894 42.1173 13.2004 42.3243 13.0564 42.5763C12.9124 42.8283 12.8404 43.1313 12.8404 43.4853C12.8404 43.7733 12.8869 44.0177 12.9799 44.2187C13.0729 44.4197 13.1959 44.5907 13.3489 44.7317C13.5019 44.8727 13.6759 44.9882 13.8709 45.0782C14.0659 45.1682 14.2653 45.2462 14.4693 45.3122C14.6793 45.3782 14.8668 45.4397 15.0318 45.4967C15.1968 45.5537 15.3348 45.6167 15.4458 45.6857C15.5568 45.7547 15.6423 45.8312 15.7023 45.9152C15.7623 45.9992 15.7923 46.1012 15.7923 46.2212C15.7923 46.3472 15.7683 46.4552 15.7203 46.5452C15.6723 46.6352 15.6078 46.7072 15.5268 46.7612C15.4458 46.8152 15.3513 46.8542 15.2433 46.8782C15.1353 46.9022 15.0243 46.9142 14.9103 46.9142C14.6583 46.9142 14.4048 46.8497 14.1499 46.7207C13.8949 46.5917 13.6894 46.4312 13.5334 46.2392L12.5254 47.2652C12.8074 47.5592 13.1614 47.7857 13.5874 47.9447C13.891 48.058 14.2023 48.1309 14.5212 48.1635V48.9692C14.5212 49.2308 14.7333 49.4428 14.9949 49.4428C15.2565 49.4428 15.4686 49.2308 15.4686 48.9692V48.1367C15.5869 48.1167 15.7038 48.0902 15.8193 48.0572C16.1133 47.9732 16.3743 47.8442 16.6023 47.6702C16.8303 47.4962 17.0118 47.2757 17.1468 47.0087C17.2818 46.7417 17.3493 46.4252 17.3493 46.0592C17.3493 45.7412 17.2863 45.4757 17.1603 45.2627C17.0343 45.0497 16.8753 44.8712 16.6833 44.7272C16.4913 44.5832 16.2783 44.4677 16.0443 44.3807C15.8103 44.2937 15.5853 44.2142 15.3693 44.1422C15.2193 44.0942 15.0843 44.0477 14.9643 44.0027C14.8443 43.9577 14.7408 43.9082 14.6538 43.8542C14.5668 43.8003 14.5008 43.7373 14.4558 43.6653C14.4108 43.5933 14.3883 43.5033 14.3883 43.3953C14.3883 43.2693 14.4168 43.1658 14.4738 43.0848C14.5308 43.0038 14.6013 42.9378 14.6853 42.8868C14.7693 42.8358 14.8638 42.8013 14.9688 42.7833C15.0738 42.7653 15.1773 42.7563 15.2793 42.7563C15.4773 42.7563 15.6828 42.8058 15.8958 42.9048C16.1088 43.0038 16.2813 43.1373 16.4133 43.3053L17.3943 42.2703C17.1123 42.0123 16.7838 41.8173 16.4088 41.6853C16.0898 41.573 15.7762 41.5085 15.468 41.4917V40.9161Z" fill="url(#paint3_linear_26632_153530)"/>
<path d="M14.5206 41.5746L14.5534 41.7209L14.6706 41.6947V41.5746H14.5206ZM14.4153 41.5998L14.4524 41.7451L14.4524 41.7451L14.4153 41.5998ZM13.6234 41.9553L13.7087 42.0786L13.7087 42.0786L13.6234 41.9553ZM13.0564 42.5763L13.1866 42.6507L13.1866 42.6507L13.0564 42.5763ZM13.8709 45.0782L13.9337 44.942L13.9337 44.942L13.8709 45.0782ZM14.4693 45.3122L14.4232 45.4549L14.4244 45.4553L14.4693 45.3122ZM15.0318 45.4967L15.0808 45.3549L15.0808 45.3549L15.0318 45.4967ZM15.4458 45.6857L15.3666 45.8131L15.3666 45.8131L15.4458 45.6857ZM15.7023 45.9152L15.8244 45.828L15.8244 45.828L15.7023 45.9152ZM15.7203 46.5452L15.588 46.4746L15.588 46.4746L15.7203 46.5452ZM15.2433 46.8782L15.2759 47.0246L15.2759 47.0246L15.2433 46.8782ZM14.1499 46.7207L14.0821 46.8545L14.0821 46.8545L14.1499 46.7207ZM13.5334 46.2392L13.6498 46.1446L13.544 46.0144L13.4264 46.1341L13.5334 46.2392ZM12.5254 47.2652L12.4184 47.16L12.3163 47.2639L12.4171 47.369L12.5254 47.2652ZM13.5874 47.9447L13.5349 48.0852L13.5349 48.0852L13.5874 47.9447ZM14.5212 48.1635H14.6712V48.028L14.5365 48.0143L14.5212 48.1635ZM15.4686 48.1367L15.4435 47.9888L15.3186 48.01V48.1367H15.4686ZM15.8193 48.0572L15.8605 48.2014L15.8605 48.2014L15.8193 48.0572ZM16.6023 47.6702L16.5113 47.5509L16.5113 47.5509L16.6023 47.6702ZM17.1468 47.0087L17.2806 47.0764L17.2806 47.0764L17.1468 47.0087ZM17.1603 45.2627L17.0312 45.3391L17.0312 45.3391L17.1603 45.2627ZM16.6833 44.7272L16.5933 44.8472L16.5933 44.8472L16.6833 44.7272ZM16.0443 44.3807L15.992 44.5213L15.992 44.5213L16.0443 44.3807ZM15.3693 44.1422L15.4168 43.9999L15.415 43.9994L15.3693 44.1422ZM14.9643 44.0027L14.9117 44.1432L14.9117 44.1432L14.9643 44.0027ZM14.6538 43.8542L14.5747 43.9817L14.5747 43.9817L14.6538 43.8542ZM14.4558 43.6653L14.583 43.5858L14.583 43.5858L14.4558 43.6653ZM14.4738 43.0848L14.3512 42.9984L14.3512 42.9984L14.4738 43.0848ZM14.6853 42.8868L14.7632 43.015L14.7632 43.015L14.6853 42.8868ZM15.8958 42.9048L15.8326 43.0408L15.8326 43.0408L15.8958 42.9048ZM16.4133 43.3053L16.2954 43.3979L16.4027 43.5345L16.5222 43.4085L16.4133 43.3053ZM17.3943 42.2703L17.5031 42.3735L17.6082 42.2627L17.4955 42.1596L17.3943 42.2703ZM16.4088 41.6853L16.359 41.8268L16.359 41.8268L16.4088 41.6853ZM15.468 41.4917H15.318V41.6338L15.4598 41.6415L15.468 41.4917ZM14.9943 40.5924C15.1731 40.5924 15.318 40.7373 15.318 40.9161H15.618C15.618 40.5716 15.3387 40.2924 14.9943 40.2924V40.5924ZM14.6706 40.9161C14.6706 40.7373 14.8155 40.5924 14.9943 40.5924V40.2924C14.6499 40.2924 14.3706 40.5716 14.3706 40.9161H14.6706ZM14.6706 41.5746V40.9161H14.3706V41.5746H14.6706ZM14.4524 41.7451C14.4861 41.7366 14.5197 41.7285 14.5534 41.7209L14.4878 41.4282C14.4513 41.4364 14.4147 41.4452 14.3783 41.4545L14.4524 41.7451ZM13.7087 42.0786C13.9271 41.9274 14.1746 41.816 14.4524 41.7451L14.3783 41.4545C14.0681 41.5336 13.7876 41.6592 13.538 41.832L13.7087 42.0786ZM13.1866 42.6507C13.3197 42.4178 13.4935 42.2276 13.7087 42.0786L13.538 41.832C13.2852 42.007 13.081 42.2308 12.9261 42.5019L13.1866 42.6507ZM12.9904 43.4853C12.9904 43.1517 13.0581 42.8755 13.1866 42.6507L12.9261 42.5019C12.7666 42.781 12.6904 43.1109 12.6904 43.4853H12.9904ZM13.116 44.1558C13.0345 43.9795 12.9904 43.7578 12.9904 43.4853H12.6904C12.6904 43.7887 12.7393 44.056 12.8437 44.2817L13.116 44.1558ZM13.4505 44.6214C13.3129 44.4946 13.2013 44.34 13.116 44.1558L12.8437 44.2817C12.9445 44.4994 13.0788 44.6868 13.2472 44.842L13.4505 44.6214ZM13.9337 44.942C13.7525 44.8584 13.5917 44.7515 13.4505 44.6214L13.2472 44.842C13.4121 44.994 13.5993 45.1181 13.808 45.2144L13.9337 44.942ZM14.5155 45.1695C14.3172 45.1053 14.1233 45.0295 13.9337 44.942L13.808 45.2144C14.0084 45.3069 14.2135 45.3871 14.4232 45.4549L14.5155 45.1695ZM15.0808 45.3549C14.9142 45.2974 14.7253 45.2354 14.5143 45.1691L14.4244 45.4553C14.6334 45.521 14.8195 45.5821 14.9829 45.6385L15.0808 45.3549ZM15.525 45.5583C15.402 45.4818 15.2531 45.4144 15.0808 45.3549L14.9829 45.6385C15.1406 45.693 15.2677 45.7516 15.3666 45.8131L15.525 45.5583ZM15.8244 45.828C15.7503 45.7243 15.6485 45.6351 15.525 45.5583L15.3666 45.8131C15.4651 45.8743 15.5344 45.9382 15.5803 46.0024L15.8244 45.828ZM15.9423 46.2212C15.9423 46.0752 15.9054 45.9414 15.8244 45.828L15.5803 46.0024C15.6193 46.057 15.6423 46.1272 15.6423 46.2212H15.9423ZM15.8527 46.6158C15.9147 46.4995 15.9423 46.3661 15.9423 46.2212H15.6423C15.6423 46.3283 15.622 46.4109 15.588 46.4746L15.8527 46.6158ZM15.61 46.886C15.7126 46.8176 15.7936 46.7265 15.8527 46.6158L15.588 46.4746C15.551 46.5438 15.503 46.5968 15.4436 46.6364L15.61 46.886ZM15.2759 47.0246C15.3995 46.9971 15.5117 46.9516 15.61 46.886L15.4436 46.6364C15.38 46.6788 15.3032 46.7112 15.2108 46.7318L15.2759 47.0246ZM14.9103 47.0642C15.0349 47.0642 15.1569 47.0511 15.2759 47.0246L15.2108 46.7318C15.1138 46.7533 15.0137 46.7642 14.9103 46.7642V47.0642ZM14.0821 46.8545C14.3553 46.9927 14.6318 47.0642 14.9103 47.0642V46.7642C14.6848 46.7642 14.4544 46.7066 14.2176 46.5868L14.0821 46.8545ZM13.417 46.3338C13.5882 46.5445 13.8112 46.7175 14.0821 46.8545L14.2176 46.5868C13.9785 46.4659 13.7906 46.3179 13.6498 46.1446L13.417 46.3338ZM12.6324 47.3703L13.6404 46.3443L13.4264 46.1341L12.4184 47.16L12.6324 47.3703ZM13.6398 47.8041C13.2325 47.6521 12.8983 47.4373 12.6336 47.1613L12.4171 47.369C12.7165 47.6811 13.0903 47.9192 13.5349 48.0852L13.6398 47.8041ZM14.5365 48.0143C14.2304 47.983 13.9316 47.913 13.6398 47.8041L13.5349 48.0852C13.8504 48.203 14.1742 48.2789 14.506 48.3127L14.5365 48.0143ZM14.6712 48.9692V48.1635H14.3712V48.9692H14.6712ZM14.9949 49.2928C14.8162 49.2928 14.6712 49.1479 14.6712 48.9692H14.3712C14.3712 49.3136 14.6505 49.5928 14.9949 49.5928V49.2928ZM15.3186 48.9692C15.3186 49.1479 15.1737 49.2928 14.9949 49.2928V49.5928C15.3394 49.5928 15.6186 49.3136 15.6186 48.9692H15.3186ZM15.3186 48.1367V48.9692H15.6186V48.1367H15.3186ZM15.7781 47.9129C15.6679 47.9444 15.5564 47.9697 15.4435 47.9888L15.4936 48.2846C15.6174 48.2636 15.7397 48.2359 15.8605 48.2014L15.7781 47.9129ZM16.5113 47.5509C16.2992 47.7128 16.0553 47.8337 15.7781 47.9129L15.8605 48.2014C16.1713 48.1126 16.4494 47.9755 16.6933 47.7894L16.5113 47.5509ZM17.0129 46.941C16.8877 47.1887 16.7205 47.3913 16.5113 47.5509L16.6933 47.7894C16.9401 47.6011 17.1359 47.3627 17.2806 47.0764L17.0129 46.941ZM17.1993 46.0592C17.1993 46.4068 17.1352 46.6992 17.0129 46.941L17.2806 47.0764C17.4284 46.7842 17.4993 46.4435 17.4993 46.0592H17.1993ZM17.0312 45.3391C17.1401 45.5233 17.1993 45.7606 17.1993 46.0592H17.4993C17.4993 45.7218 17.4324 45.4282 17.2894 45.1863L17.0312 45.3391ZM16.5933 44.8472C16.769 44.979 16.9149 45.1425 17.0312 45.3391L17.2894 45.1863C17.1537 44.9569 16.9816 44.7634 16.7733 44.6072L16.5933 44.8472ZM15.992 44.5213C16.2131 44.6035 16.4133 44.7122 16.5933 44.8472L16.7733 44.6072C16.5693 44.4542 16.3435 44.332 16.0966 44.2401L15.992 44.5213ZM15.3219 44.2845C15.5361 44.356 15.7595 44.4349 15.992 44.5213L16.0966 44.2401C15.8611 44.1526 15.6345 44.0725 15.4168 43.9999L15.3219 44.2845ZM14.9117 44.1432C15.0344 44.1892 15.1718 44.2365 15.3236 44.2851L15.415 43.9994C15.2669 43.952 15.1343 43.9063 15.017 43.8623L14.9117 44.1432ZM14.5747 43.9817C14.6719 44.042 14.7846 44.0956 14.9117 44.1432L15.017 43.8623C14.904 43.8199 14.8098 43.7745 14.7329 43.7268L14.5747 43.9817ZM14.3286 43.7448C14.3881 43.8398 14.4722 43.9181 14.5747 43.9817L14.7329 43.7268C14.6615 43.6824 14.6136 43.6347 14.583 43.5858L14.3286 43.7448ZM14.2383 43.3953C14.2383 43.5238 14.2652 43.6432 14.3286 43.7448L14.583 43.5858C14.5565 43.5433 14.5383 43.4827 14.5383 43.3953H14.2383ZM14.3512 42.9984C14.2721 43.1108 14.2383 43.2468 14.2383 43.3953H14.5383C14.5383 43.2917 14.5616 43.2207 14.5965 43.1711L14.3512 42.9984ZM14.6075 42.7586C14.5057 42.8204 14.42 42.9007 14.3512 42.9984L14.5965 43.1711C14.6417 43.1069 14.697 43.0552 14.7632 43.015L14.6075 42.7586ZM14.9435 42.6354C14.8215 42.6563 14.7089 42.697 14.6075 42.7586L14.7632 43.015C14.8298 42.9746 14.9062 42.9462 14.9942 42.9311L14.9435 42.6354ZM15.2793 42.6063C15.1685 42.6063 15.0565 42.6161 14.9435 42.6354L14.9942 42.9311C15.0912 42.9145 15.1862 42.9063 15.2793 42.9063V42.6063ZM15.959 42.7687C15.7299 42.6622 15.5029 42.6063 15.2793 42.6063V42.9063C15.4518 42.9063 15.6358 42.9493 15.8326 43.0408L15.959 42.7687ZM16.5312 43.2126C16.3833 43.0243 16.1913 42.8767 15.959 42.7687L15.8326 43.0408C16.0264 43.1309 16.1793 43.2503 16.2954 43.3979L16.5312 43.2126ZM17.2854 42.1671L16.3044 43.2021L16.5222 43.4085L17.5031 42.3735L17.2854 42.1671ZM16.359 41.8268C16.7157 41.9524 17.0265 42.1371 17.293 42.381L17.4955 42.1596C17.198 41.8874 16.8519 41.6822 16.4586 41.5438L16.359 41.8268ZM15.4598 41.6415C15.7525 41.6574 16.0521 41.7188 16.359 41.8268L16.4586 41.5438C16.1274 41.4272 15.7998 41.3595 15.4761 41.3419L15.4598 41.6415ZM15.318 40.9161V41.4917H15.618V40.9161H15.318Z" fill="url(#paint4_linear_26632_153530)"/>
<defs>
<linearGradient id="paint0_linear_26632_153530" x1="7.87378e-07" y1="35.1353" x2="21.9953" y2="39.0802" gradientUnits="userSpaceOnUse">
<stop stop-color="#FE9B25"/>
<stop offset="0.994792" stop-color="#FF5922"/>
</linearGradient>
<linearGradient id="paint1_linear_26632_153530" x1="7.29736" y1="54.8355" x2="29.2926" y2="58.7804" gradientUnits="userSpaceOnUse">
<stop stop-color="#FE9B25"/>
<stop offset="0.994792" stop-color="#FF5922"/>
</linearGradient>
<linearGradient id="paint2_linear_26632_153530" x1="7.5" y1="44.9443" x2="22.4019" y2="46.1534" gradientUnits="userSpaceOnUse">
<stop stop-color="#FE9B25"/>
<stop offset="0.994792" stop-color="#FF5922"/>
</linearGradient>
<linearGradient id="paint3_linear_26632_153530" x1="12.5254" y1="44.9426" x2="17.3849" y2="45.1559" gradientUnits="userSpaceOnUse">
<stop stop-color="#FE9B25"/>
<stop offset="0.994792" stop-color="#FF5922"/>
</linearGradient>
<linearGradient id="paint4_linear_26632_153530" x1="12.5254" y1="44.9426" x2="17.3943" y2="44.9352" gradientUnits="userSpaceOnUse">
<stop stop-color="#FE9B25"/>
<stop offset="1" stop-color="#FF5922"/>
</linearGradient>
</defs>
</svg>
